<?xml version="1.0" encoding="UTF-8"?>
<svg width="163px" height="163px" viewBox="0 0 163 163" version="1.1" xmlns="http://www.w3.org/2000/svg" xmlns:xlink="http://www.w3.org/1999/xlink">
    <!-- Generator: Sketch 50 (54983) - http://www.bohemiancoding.com/sketch -->
    <title>Untitled</title>
    <desc>Created with Sketch.</desc>
    <defs></defs>
    <g id="Page-1" stroke="none" stroke-width="1" fill="none" fill-rule="evenodd">
        <path d="M29,68.8 C4.5,87.9 -0.8,95.7 0.7,98.6 C3.4,103.6 29.9,101.6 34,86.8 C36.4,78.2 30.1,70 29,68.8 Z" id="Shape" fill="#939598" fill-rule="nonzero"></path>
        <path d="M29.4,68.6 C27.3,69.8 25,71.4 22.6,73.3 C20,75.3 17.9,77.4 16.2,79.2 C17.5,83 19.3,87.3 21.8,91.8 C22.8,93.7 23.9,95.4 25,97 C24.8,102.1 50.7,84.2 36.9,74.6 C34.1,72.8 31.6,70.7 29.4,68.6 Z" id="Shape" fill="#F8F8F8" fill-rule="nonzero"></path>
    </g>
</svg>