<?xml version="1.0" encoding="UTF-8"?>
<svg width="163px" height="163px" viewBox="0 0 163 163" version="1.1" xmlns="http://www.w3.org/2000/svg" xmlns:xlink="http://www.w3.org/1999/xlink">
    <!-- Generator: Sketch 50 (54983) - http://www.bohemiancoding.com/sketch -->
    <title>Untitled</title>
    <desc>Created with Sketch.</desc>
    <defs></defs>
    <g id="Page-1" stroke="none" stroke-width="1" fill="none" fill-rule="evenodd">
        <path d="M129.4,86 C132.9,100.6 159,104.1 162.1,99.3 C164.9,94.9 150.6,80.9 148.3,78.7 C143.3,73.8 138.6,70.4 135.1,68.3 C134,69.7 127.4,77.5 129.4,86 Z" id="Shape" fill="#939598" fill-rule="nonzero"></path>
        <path d="M127.7,74.1 C113.9,83.7 139.8,101.6 139.6,96.5 C140.7,94.9 141.8,93.2 142.8,91.3 C145.3,86.8 147.1,82.5 148.4,78.7 C146.7,76.9 144.6,74.8 142,72.8 C139.6,70.9 137.3,69.3 135.2,68.1 C133,70.1 130.5,72.2 127.7,74.1 Z" id="Shape" fill="#F8F8F8" fill-rule="nonzero"></path>
    </g>
</svg>