<?xml version="1.0" encoding="utf-8"?>
<!-- Generator: Adobe Illustrator 21.0.0, SVG Export Plug-In . SVG Version: 6.00 Build 0)  -->
<svg version="1.1" id="Layer_1" xmlns="http://www.w3.org/2000/svg" xmlns:xlink="http://www.w3.org/1999/xlink" x="0px" y="0px"
	 viewBox="0 0 171 172.5" style="enable-background:new 0 0 171 172.5;" xml:space="preserve">
<style type="text/css">
	.st0{fill:#F8E4D2;}
	.st1{fill:#FBAD18;}
	.st2{fill:#939598;}
	.st3{fill:#807770;}
	.st4{fill:#D1D3D4;}
	.st5{fill:#FFFFFF;}
	.st6{fill:#1278BA;}
	.st7{fill:#F7941D;}
	.st8{fill:#231F20;}
	.st9{fill:#F8F8F8;stroke:#231F20;stroke-width:0.15;stroke-miterlimit:10;}
	.st10{opacity:0.18;fill:#CCD9EF;enable-background:new    ;}
	.st11{fill:#333132;}
	.st12{fill:#92AFCC;stroke:#231F20;stroke-width:0.5;stroke-miterlimit:10;}
	.st13{fill:#B6B8BA;}
	.st14{fill:none;stroke:#231F20;stroke-width:0.15;stroke-miterlimit:10;}
	.st15{fill:#E4E5E6;}
	.st16{opacity:0.6;fill:#FFFFFF;enable-background:new    ;}
	.st17{fill:#6D707C;}
</style>
<path class="st0" d="M84,62c0.1-0.9-0.4-1.6-0.8-1.7c-0.4,0-1.1,0.6-1.1,1.5c0.4,6,0.7,8.1,1,8.1C83.4,70,83.7,67.9,84,62z"/>
<path class="st1" d="M80.8,61.4c-0.1-0.1-0.6-0.2-1.1,0c-0.6,0.2-1,0.9-0.9,1.6c1.1,5.4,1.8,8,2.2,8C81.4,70.8,81.3,67.7,80.8,61.4z
	"/>
<path class="st2" d="M78,19.1c-0.8-1.6-1.6-1.3-5.5-4.9c-0.3-0.2-3.6-3.4-6.6-7.9c-1.3-2-1.4-2.4-1.2-2.5c0.5-0.4,4,2.3,4.8,2.9
	c3.8,2.9,5.2,5,5.8,4.7c1-0.3-1.9-5.3-0.9-5.8s5.1,4,7.5,8c0.6,1.1,1.2,2.3,1,3.8c-0.1,1.5-0.8,2.4-1.2,3.1
	c-0.8,1.4-1.7,3.7-1.6,7.2c-1.2-0.1-2.3-0.2-3.5-0.3C78.2,25,79.5,21.9,78,19.1z"/>
<path class="st2" d="M86.8,18.6c1-1.4,1.7-1.2,5.9-4.4c0.3-0.2,3.8-3,7.3-7.3c1.5-1.8,1.6-2.3,1.4-2.4c-0.5-0.5-4.2,1.9-5.1,2.4
	c-4,2.5-5.6,4.4-6.2,4.2c-0.9-0.4,2.4-5.2,1.4-5.8c-1-0.5-5.5,3.5-8.2,7.3c-0.8,1-1.4,2.3-1.4,3.7c-0.1,1.5,0.5,2.5,0.9,3.2
	c0.8,1.5,1.4,3.8,1,7.3c1.2,0,2.3,0,3.5,0C86.1,24.5,85.1,21.3,86.8,18.6z"/>
<path class="st3" d="M97.5,149.8c1.5,1.6,2.3,0.9,8,3.9c0.3,0.2,5.3,2.7,10.4,7.2c2.3,2,2.4,2.5,2.3,2.7c-0.5,0.7-5.4-1.2-6.5-1.6
	c-5.3-2.1-7.8-4.1-8.3-3.6c-0.9,0.8,4.2,6.1,3.2,7.1s-7.3-2.9-11.4-7c-1.1-1.1-2.2-2.5-2.7-4.5s-0.1-3.5,0.2-4.6
	c0.4-2.2,0.5-5.5-1-10c1.3-0.4,2.7-0.7,4-1.1C94.9,142.2,94.7,146.8,97.5,149.8z"/>
<path class="st3" d="M67.7,149.7c-1.6,1.5-2.4,0.9-8.4,3.8c-0.3,0.2-5.5,2.6-10.8,6.9c-2.4,1.9-2.5,2.4-2.5,2.6
	c0.5,0.7,5.7-1.2,6.8-1.5c5.6-2,8.1-3.9,8.7-3.4c0.9,0.8-4.4,5.8-3.4,6.8s7.6-2.8,11.9-6.7c1.2-1.1,2.3-2.4,2.8-4.3
	c0.5-1.9,0.1-3.3-0.2-4.4c-0.4-2.2-0.5-5.3,1-9.6c-1.4-0.4-2.8-0.7-4.1-1.1C70.4,142.5,70.6,146.8,67.7,149.7z"/>
<path class="st4" d="M81,13.5c-1.7,0-34.1,1.2-44.9,27.4c-1.2,2.9-1.3,4.1-3.4,19.5c-6.8,49.8-8.2,57.6-4.2,66.7
	c3.6,8.3,9.1,12,17.4,17.5c31.4,21,63.9,5.2,72.2,0.7c7.3-4,13.2-7.3,17.2-15.1c3.9-7.6,3-13.6,1-44.4c-1.9-31-1.8-37.2-6.6-45.4
	c-4.1-7-8.9-10.5-14.3-14.6C110.6,22.2,98.1,13.2,81,13.5z"/>
<path class="st5" d="M50.1,64.1c-3.6-3.2-6.3-9.6-4-15.1c2.8-6.8,7.5-11,14.6-11.4c3.1-0.2,6,0.2,8.8,2c3.3,2.1,4.9,5.3,4.8,9.1
	c-0.1,4.9-1.7,9.3-4.6,12.7c-1,1.1-4.3,4.9-9.8,5.6c-3.2,0.4-5.8-0.4-7.1-1C52,65.6,51.1,65.1,50.1,64.1z"/>
<path class="st5" d="M115.3,64.1c3.6-3.3,6.3-9.7,4-15.1c-2.8-6.8-7.5-11-14.6-11.4c-3.1-0.2-6,0.2-8.8,2c-3.3,2.1-4.9,5.3-4.8,9.1
	c0.1,4.9,1.7,9.3,4.6,12.7c1,1.1,4.3,4.9,9.8,5.6c3.2,0.4,5.8-0.4,7.1-1C113.2,65.6,114.3,65.1,115.3,64.1z"/>
<path class="st6" d="M105.9,57.7c2.1-1.8,3.8-5.3,2.5-8.4c-1.6-3.8-4.4-6-8.6-6.2c-1.8-0.1-3.6,0.1-5.2,1.2c-2,1.2-2.9,2.9-2.9,5
	c0,2.7,1,5.1,2.7,7c0.5,0.6,2.5,2.7,5.8,3c1.9,0.2,3.4-0.3,4.2-0.6C104.8,58.5,105.3,58.2,105.9,57.7z"/>
<path class="st7" d="M79.2,74.8c0.5,1.3,2.7,4.6,4.5,4.4c1.2-0.1,2.3-2.2,4.4-6.3c0-0.1,0.1-0.2,0.2-0.3c-3.6,0-6.4,0-10.1,0
	C78.9,74.4,79.2,74.8,79.2,74.8z"/>
<path class="st8" d="M99.3,53.9c1-0.9,1.8-2.5,1.2-4c-0.8-1.8-2.1-2.9-4.1-2.9c-0.9-0.1-1.7,0.1-2.5,0.5c-1,0.5-1.4,1.4-1.4,2.4
	c0,1.3,0.5,2.5,1.3,3.3c0.3,0.3,1.2,1.3,2.7,1.4c0.9,0.1,1.6-0.1,2.1-0.3C98.7,54.3,99,54.1,99.3,53.9z"/>
<path class="st5" d="M100.4,49c0.3-0.3,0.5-0.8,0.3-1.2c-0.2-0.5-0.6-0.8-1.2-0.9c-0.3,0-0.5,0-0.7,0.1c-0.3,0.1-0.4,0.4-0.3,0.7
	c0,0.4,0.1,0.8,0.3,1c0.1,0.1,0.3,0.4,0.8,0.4C99.9,49.1,100.3,49.1,100.4,49z"/>
<path class="st2" d="M72.7,14.4c1.4,1.5,2.3,1.7,3,1.6c1.3-0.1,1.5-1.3,2.8-1.4c1.5-0.1,2.3,1.4,3,0.9c0.1-0.1,0.4-0.4,0.5-0.9
	s-0.1-0.9-0.1-1.1c-0.9-0.2-2-0.4-3.3-0.4C75.9,13.1,73.9,13.8,72.7,14.4z"/>
<path class="st2" d="M92.2,14.6c-1.6,1.5-2.7,1.7-3.5,1.5c-1.1-0.3-1.2-1.3-2.3-1.3c-1.2-0.1-1.9,1.1-2.9,0.7
	c-0.5-0.2-0.7-0.6-0.8-0.7c-0.1-0.1-0.2-0.4-0.1-0.7c0-0.3,0.1-0.5,0.2-0.7c0.4-0.1,0.9-0.1,1.5-0.1c0,0,1,0,2.1,0
	C88.9,13.4,90.9,14,92.2,14.6z"/>
<path class="st6" d="M59.5,57.2c-2.1-1.8-3.8-5.3-2.5-8.4c1.6-3.8,4.4-6,8.5-6.2c1.8-0.1,3.6,0.1,5.2,1.2c1.9,1.2,2.9,2.9,2.9,5
	c0,2.7-1,5.1-2.7,6.9c-0.5,0.6-2.5,2.7-5.8,3c-1.9,0.2-3.4-0.3-4.2-0.6C60.7,58,60.1,57.7,59.5,57.2z"/>
<path class="st8" d="M66.1,53.9c-1-0.9-1.8-2.5-1.2-4C65.7,48.1,67,47,69,47c0.9-0.1,1.7,0.1,2.5,0.5c1,0.5,1.4,1.4,1.4,2.4
	c0,1.3-0.5,2.5-1.3,3.3c-0.3,0.3-1.2,1.3-2.7,1.4c-0.9,0.1-1.6-0.1-2.1-0.3C66.7,54.3,66.4,54.1,66.1,53.9z"/>
<path class="st5" d="M65,49c-0.3-0.3-0.5-0.8-0.3-1.2c0.2-0.5,0.6-0.8,1.2-0.9c0.3,0,0.5,0,0.7,0.1c0.3,0.1,0.4,0.4,0.3,0.7
	c0,0.4-0.1,0.8-0.3,1c-0.1,0.1-0.3,0.4-0.8,0.4C65.5,49.1,65.1,49.1,65,49z"/>
<path class="st9" d="M54.5-25.7"/>
<path class="st2" d="M130.4,89c3.5,14.6,29.6,18.1,32.7,13.3c2.8-4.4-11.5-18.4-13.8-20.6c-5-4.9-9.7-8.3-13.2-10.4
	C135,72.7,128.4,80.5,130.4,89z"/>
<path class="st10" d="M44.2,31.2c-8.9,5.5-13.5,24.4-3.4,35.2c7.3,7.8,20.5,9.4,31.2,2.9c-0.1-0.7-0.8-5.7,2.8-9.7
	c0.2-0.2,3-3.3,7.2-3.6c5.5-0.4,11.3,4.1,14,11.3c1,0.9,7.2,6.4,16.3,5.5c7.5-0.7,12.1-5.3,13.3-6.5c7-7.1,6.4-16.4,6.3-18.4
	c-0.1-1.1-1.3-13.1-10.8-18.2c-5.4-2.9-10.9-2.1-16.3-1.3c-11.2,1.6-11.2,5.8-19.4,6.8c-10.3,1.2-12.8-5-28.4-5.6
	C50.7,29.3,47.5,29.1,44.2,31.2z"/>
<path class="st1" d="M89.6,62.2c-1.4-1.9-3.2-2.6-3.8-2.8c-1.9-0.6-3.6-0.2-4.2-0.1c-0.8,0.2-2.8,0.7-4.1,2.4
	c-1.6,2.2-1.2,4.9-0.9,6.6c0.3,1.5,0.8,2.7,1.2,3.5c0.1,0.1,0.1,0.1,0.2,0.3c0.1,0.2,0.1,0.3,0.2,0.5c1.2,0.5,3.4,1.1,6.1,0.9
	c1.7-0.1,3-0.5,4-0.9c0.2-0.3,0.4-0.5,0.6-0.8s0.5-0.7,0.8-1c0.3-0.5,0.6-1.2,0.9-2.2C90.7,68,91.5,65,89.6,62.2z"/>
<path class="st11" d="M81.3,74.7c0.2,1.2,1.1,2,2.1,2.1c1.3,0.1,2.6-2.9,2.8-3.1c0.1-0.1,0.2-0.2,0.3-0.3c0.2-0.1,0.3-0.3,0.3-0.3
	c-0.9,0.2-2.1,0.4-3.6,0.4c-1.4,0-2.7-0.2-3.6-0.4c0.2,0.3,0.5,0.4,0.6,0.5c0.1,0,0.1,0,0.2,0.1s0.2,0.1,0.3,0.2
	c0.1,0,0.2,0.1,0.4,0.2C81.3,74.3,81.3,74.6,81.3,74.7z"/>
<path class="st12" d="M114.1,130.1"/>
<path class="st12" d="M89.5,106.3"/>
<path class="st13" d="M75.7,88.9c0.5,5.9,0.8,12,0.9,18.4c0,2.5,0,4.9,0,7.2c0,1.9,0,4.9-0.1,8.5c-0.1,3.5-0.1,6.1-0.2,7.2
	c-0.1,4-0.3,10.9-0.6,23.4c-2.6-0.1-5.6-0.3-8.8-0.8c-4-0.6-7.5-1.6-10.5-2.6c0.4-2.5-0.1-3.6-0.7-4.1c-1-0.9-2.3-0.2-5.6-1.1
	c-0.6-0.2-1.3-0.4-2-0.6c-3.4-1.2-6-2.7-7.7-3.8c11.2-17.1,22.3-34.2,33.5-51.3c0.1,0,0.3-0.1,0.4-0.1C74.8,89.2,75.3,89,75.7,88.9z
	"/>
<path class="st2" d="M30,71.8C5.5,90.9,0.2,98.7,1.7,101.6c2.7,5,29.2,3,33.3-11.8C37.4,81.2,31.1,73,30,71.8z"/>
<path class="st9" d="M30.4,71.6c-2.1,1.2-4.4,2.8-6.8,4.7c-2.6,2-4.7,4.1-6.4,5.9c1.3,3.8,3.1,8.1,5.6,12.6c1,1.9,2.1,3.6,3.2,5.2
	c-0.2,5.1-0.5,10.4-1.1,16c-0.9,8.8-2.3,17-3.9,24.3c6.1,2.8,13.5,5.6,22.1,7.7c11.7,3,22.1,3.9,30.4,4.1c0.8-11.2,1.3-23,1.6-35.2
	c0.2-9.6,0.2-18.9,0-27.9c-8.7-0.1-23.4-1.8-37.2-11.4C35.1,75.8,32.6,73.7,30.4,71.6z"/>
<path class="st14" d="M68.7,88.9c0.5,12.5,0.6,25.7,0,39.7c-0.3,7.9-0.8,15.5-1.4,22.9"/>
<path class="st9" d="M72.3,137.8c-0.8-0.7-2-0.8-2.2-0.5c-0.2,0.5,2.4,2.6,2.9,2.2C73.2,139.4,72.9,138.4,72.3,137.8z"/>
<path class="st15" d="M29.7,71.7c-0.2,0.1-0.5,0.3-0.9,0.7c-0.1,0.1-0.5,0.6-0.6,1.2c0,0.3,0,0.8,0.5,1.5c0.7,1,2.9,3.3,6.1,6
	c0.8,0.7,1.9,1.6,3,2.9c0.5,0.6,2.2,2.6,4.1,6.4c1.1,2.4,2.6,6,3.5,10.9c7.5-0.6,17.4-2.6,26.3-9.4c1-0.8,2-1.6,2.9-2.4
	c-5.2-0.3-11.9-1.2-19.4-3.7C44.1,82,36,76.4,31,72.3C30.6,72.1,30.1,71.9,29.7,71.7z"/>
<path class="st9" d="M31.2,71.2c-0.9,0.2-2.1,0.5-2.4,1.4c-0.9,2.3,5.3,5.9,10.7,11.8c2.6,2.8,5.9,7,8.6,13.1c4-0.2,9.3-1,15.3-2.9
	c5-1.6,9-3.7,12.1-5.6c-5.2,0-12.4-0.6-20.6-3.3C43.6,81.9,35.6,75.9,31.1,72C31.2,71.7,31.2,71.4,31.2,71.2z"/>
<path class="st15" d="M26.1,100.5c0,1.2-0.1,2.4-0.1,3.6c-0.1,1.3-0.2,2.5-0.2,3.7c0.3-0.4,0.7-1,1.2-1.7c1-1.4,1.2-1.6,1.6-2.2
	c1.6-2.6,2-5,2.2-6.6c-0.4,0.7-1,1.4-1.7,2.2c-0.8,0.8-1.6,1.5-2.2,2c-0.1-0.2-0.2-0.4-0.4-0.7C26.3,100.8,26.2,100.6,26.1,100.5z"
	/>
<path class="st14" d="M25.9,100c0.3,0.5,0.6,1,0.9,1.5c0.4-0.3,0.7-0.6,1.1-0.9c1.2-1.1,2.1-2.2,2.8-3.3"/>
<path class="st16" d="M57.6,34c-1.5,12.6-3,25.2-4.5,37.7c2,0.1,4,0.3,6,0.4c1.7-12.9,3.3-25.8,5-38.7C62,33.7,59.8,33.8,57.6,34z"
	/>
<path class="st16" d="M105.9,33.7c-1,12.6-2.1,25.3-3.1,37.9c2,0.1,4,0.1,6,0.2c1.2-13,2.4-25.9,3.6-38.9
	C110.3,33.2,108.1,33.4,105.9,33.7z"/>
<g>
	<path class="st17" d="M85.5,32.8c-0.8,0-2,0-3.4-0.1c-0.4,0-1.6-0.1-2.5-0.2c-2.4-0.3-4.2-0.9-5-1.2c-2-0.7-9.1-3.2-13-4
		c-2.6-0.5-9.4-1.9-16.2-0.1c-1.9,0.5-6,1.7-9.5,5.3c0,0-0.6,0.6-1.1,1.3c-3.5,4.3-6.6,14.4-3.3,24.6c2,6.3,5.5,10.1,6.3,10.9
		c1.3,1.4,6.3,6.3,14.3,7.8c2,0.4,6.1,1.1,10.9-0.3c2.2-0.6,3.8-1.5,5-2.2c0.3,0.1,2.6,1.2,4.7,0c1.6-0.9,2.1-2.7,2.3-3.2
		c0.5-1.8-0.2-2.6,0-4.6c0-0.3,0.3-2.5,1.7-4.3c2.3-3,6.4-3,7.1-3c0.1-0.8,0.2-1.6,0.3-2.4c-1.3-0.1-3.4,0-5.8,1
		c-0.4,0.2-1.8,0.7-3.2,2c-0.8,0.7-1.5,1.6-2.3,2.5c-1.5,1.8-2.5,3.6-3.2,5.1c-0.9,0.9-2.2,2.1-4.1,3.1c-3.3,1.8-6.3,1.9-7.9,1.9
		c-1.8,0.1-6.1,0.1-10.2-2.4c-5.6-3.4-7.4-9.2-7.9-11.8c-1.3-6.3,0.7-12.3,3.9-16.2c2-2.4,4.1-3.8,5.1-4.4c1.1-0.7,6-3.5,12.5-3.2
		c3.4,0.2,6.1,1.2,7.6,1.7c1.6,0.6,2.9,1.2,5.3,2.4c3.6,1.7,5,2.4,7.2,2.7c1.4,0.2,2.6,0.2,3.4,0.1C84.9,38.6,85.2,35.7,85.5,32.8z"
		/>
	<path class="st17" d="M82.7,32.8c0.7,0.1,1.7,0.1,2.8,0c0,0,1.1-0.1,2.3-0.3c3-0.6,13-4.1,17.7-5.2c2.9-0.7,9.1-2,16.2-0.1
		c1.9,0.5,6,1.7,9.5,5.3c0,0,0.6,0.6,1.1,1.3c3.5,4.3,6.6,14.4,3.3,24.6c-2,6.3-5.5,10.1-6.3,10.9c-1.3,1.4-6.3,6.3-14.3,7.8
		c-2,0.4-6.1,1.1-10.9-0.3c-2.2-0.6-3.8-1.5-5-2.2c-0.3,0.1-2.6,1.2-4.7,0c-1.6-0.9-2.1-2.7-2.3-3.2c-0.5-1.8,0.2-2.6,0-4.6
		c0-0.4-0.3-2.5-1.7-4.3c-2.2-2.8-5.9-3-6.7-3c0-0.8,0-1.6,0-2.4c0.6,0,1.4,0,2.4,0.2c0.6,0.1,1.6,0.3,2.6,0.8
		c1.4,0.6,2.5,1.4,3.2,2c0.8,0.7,1.5,1.6,2.3,2.5c1.5,1.8,2.5,3.6,3.2,5.1c0.9,0.9,2.2,2.1,4.1,3.1c3.3,1.8,6.3,1.9,7.9,1.9
		c1.8,0.1,6.1,0.1,10.2-2.4c5.6-3.4,7.4-9.2,7.9-11.8c1.3-6.3-0.7-12.3-3.9-16.2c-2-2.4-4.1-3.8-5.1-4.4c-1.1-0.7-6-3.5-12.5-3.2
		c-3.4,0.2-6.1,1.2-7.6,1.7c-1.6,0.6-2.9,1.2-5.3,2.4c-3,1.5-4.6,2.4-7.2,2.7c-1,0.1-1.8,0.1-2.4,0.1C83.3,38.6,83,35.7,82.7,32.8z"
		/>
</g>
<g>
	<path class="st2" d="M85.5,31.1c-0.8,0-2,0-3.4-0.1c-0.4,0-1.6-0.1-2.5-0.2c-2.4-0.3-4.2-0.9-5-1.2c-2-0.7-9.1-3.2-13-4
		c-2.6-0.5-9.4-1.9-16.2-0.1c-1.9,0.5-6,1.7-9.5,5.3c0,0-0.6,0.6-1.1,1.3c-3.5,4.3-6.6,14.4-3.3,24.6c2,6.3,5.5,10.1,6.3,10.9
		c1.3,1.4,6.3,6.3,14.3,7.8c2,0.4,6.1,1.1,10.9-0.3c2.2-0.6,3.8-1.5,5-2.2c0.3,0.1,2.6,1.2,4.7,0c1.6-0.9,2.1-2.7,2.3-3.2
		c0.5-1.8-0.2-2.6,0-4.6c0-0.3,0.3-2.5,1.7-4.3c2.3-3,6.4-3,7.1-3c0.1-0.8,0.2-1.6,0.3-2.4c-1.3-0.1-3.4,0-5.8,1
		c-0.4,0.2-1.8,0.7-3.2,2c-0.8,0.7-1.5,1.6-2.3,2.5c-1.5,1.8-2.5,3.6-3.2,5.1c-0.9,0.9-2.2,2.1-4.1,3.1c-3.3,1.8-6.3,1.9-7.9,1.9
		c-1.8,0.1-6.1,0.1-10.2-2.4c-5.6-3.4-7.4-9.2-7.9-11.8c-1.3-6.3,0.7-12.3,3.9-16.2c2-2.4,4.1-3.8,5.1-4.4c1.1-0.7,6-3.5,12.5-3.2
		c3.4,0.2,6.1,1.2,7.6,1.7c1.6,0.6,2.9,1.2,5.3,2.4c3.6,1.7,5,2.4,7.2,2.7c1.4,0.2,2.6,0.2,3.4,0.1C84.9,36.8,85.2,33.9,85.5,31.1z"
		/>
	<path class="st2" d="M82.7,31.1c0.7,0.1,1.7,0.1,2.8,0c0,0,1.1-0.1,2.3-0.3c3-0.6,13-4.1,17.7-5.2c2.9-0.7,9.1-2,16.2-0.1
		c1.9,0.5,6,1.7,9.5,5.3c0,0,0.6,0.6,1.1,1.3c3.5,4.3,6.6,14.4,3.3,24.6c-2,6.3-5.5,10.1-6.3,10.9C128,69,123,73.9,115,75.4
		c-2,0.4-6.1,1.1-10.9-0.3c-2.2-0.6-3.8-1.5-5-2.2c-0.3,0.1-2.6,1.2-4.7,0c-1.6-0.9-2.1-2.7-2.3-3.2c-0.5-1.8,0.2-2.6,0-4.6
		c0-0.4-0.3-2.5-1.7-4.3c-2.2-2.8-5.9-3-6.7-3c0-0.8,0-1.6,0-2.4c0.6,0,1.4,0,2.4,0.2c0.6,0.1,1.6,0.3,2.6,0.8
		c1.4,0.6,2.5,1.4,3.2,2c0.8,0.7,1.5,1.6,2.3,2.5c1.5,1.8,2.5,3.6,3.2,5.1c0.9,0.9,2.2,2.1,4.1,3.1c3.3,1.8,6.3,1.9,7.9,1.9
		c1.8,0.1,6.1,0.1,10.2-2.4c5.6-3.4,7.4-9.2,7.9-11.8c1.3-6.3-0.7-12.3-3.9-16.2c-2-2.4-4.1-3.8-5.1-4.4c-1.1-0.7-6-3.5-12.5-3.2
		c-3.4,0.2-6.1,1.2-7.6,1.7c-1.6,0.6-2.9,1.2-5.3,2.4c-3,1.5-4.6,2.4-7.2,2.7c-1,0.1-1.8,0.1-2.4,0.1C83.3,36.8,83,33.9,82.7,31.1z"
		/>
</g>
<path class="st8" d="M30.5,42.6c-0.1,0.5-0.2,1-0.2,1.6c-0.1,0.8-0.1,1.5-0.2,2.2c0.4,0.1,0.9,0.2,1.5,0.2c0.7,0,1.3,0,1.8,0
	c0.2-0.5,0.3-1.1,0.4-1.7c0.1-0.7,0.1-1.4,0-1.9c-0.5-0.1-1-0.2-1.6-0.2C31.7,42.6,31.1,42.6,30.5,42.6z"/>
<path class="st8" d="M136.8,43.3c0.1,0.7,0.2,1.4,0.2,2.1c0,0.6,0.1,1.2,0.1,1.7c-0.4,0.1-0.9,0.2-1.5,0.2c-0.7,0-1.4,0-1.8-0.1
	c-0.2-0.5-0.3-1.1-0.4-1.7c-0.1-0.7-0.1-1.4,0-1.9c0.5-0.1,1-0.2,1.6-0.2c0.2,0,0.5-0.1,0.8-0.1C136.2,43.3,136.5,43.3,136.8,43.3z"
	/>
<path class="st15" d="M36.8,119.2c0,1-0.1,1.9-0.1,2.9c6.4,1.2,12.8,2.3,19.2,3.5c0.1-1.1,0.3-2.2,0.4-3.3
	C49.8,121.3,43.3,120.3,36.8,119.2z"/>
<path class="st9" d="M54.7,142.7c-2.9,0.4-6.8,0.5-11.2-0.5c-3.1-0.7-5.8-1.8-7.9-2.9c0.3-6.4,0.5-12.8,0.8-19.2
	c3.1,0.7,6.2,1.4,9.6,2c3.6,0.6,7,1,10.3,1.3C55.8,129.8,55.3,136.3,54.7,142.7z"/>
<path class="st9" d="M36.1,123.8c6.7,1.5,12.7,3.5,19.7,3.4"/>
<path class="st9" d="M23,140.8"/>
<g>
	<path class="st13" d="M92.3,88.7c0.1,0,0.3,0.1,0.4,0.1c11.2,17.1,22.3,34.2,33.5,51.3c-1.7,1.1-4.3,2.6-7.7,3.8
		c-0.7,0.2-1.4,0.4-2,0.6c-3.3,0.9-4.6,0.2-5.6,1.1c-0.6,0.5-1.1,1.6-0.7,4.1c-3,1-6.5,1.9-10.5,2.6c-3.2,0.5-6.2,0.8-8.8,0.8
		c-0.3-12.5-0.5-19.4-0.6-23.4c0-1.1-0.1-3.7-0.2-7.2c-0.1-3.7-0.1-6.7-0.1-8.5c0-2.4,0-4.8,0-7.2c0.1-6.4,0.4-12.5,0.9-18.4
		C91.4,88.5,91.8,88.6,92.3,88.7z"/>
	<path class="st9" d="M128.7,77.1c-13.8,9.6-28.5,11.3-37.2,11.4c-0.2,9-0.2,18.3,0,27.9c0.2,12.2,0.8,23.9,1.6,35.2
		c8.3-0.2,18.8-1.1,30.4-4.1c8.6-2.2,16-5,22.1-7.7c-1.6-7.4-2.9-15.5-3.9-24.3c-0.6-5.6-0.9-10.9-1.1-16c1.1-1.6,2.2-3.3,3.2-5.2
		c2.5-4.5,4.3-8.8,5.6-12.6c-1.7-1.8-3.8-3.9-6.4-5.9c-2.4-1.9-4.7-3.5-6.8-4.7C134,73.1,131.5,75.2,128.7,77.1z"/>
	<path class="st14" d="M99.3,150.9c-0.6-7.4-1.1-15-1.4-22.9c-0.6-14-0.5-27.2,0-39.7"/>
	<path class="st9" d="M92.9,105.5c0.3,0.7,2.4,0.7,2.8-0.2c0.3-0.6-0.3-1.6-1-1.8C93.7,103.2,92.6,104.9,92.9,105.5z"/>
	<path class="st9" d="M93.1,123.1c0.3,0.7,2.4,0.7,2.8-0.2c0.3-0.6-0.3-1.6-1-1.8C93.9,120.9,92.8,122.5,93.1,123.1z"/>
	<path class="st9" d="M93.6,139c0.3,0.7,2.4,0.7,2.8-0.2c0.3-0.6-0.3-1.6-1-1.8C94.3,136.8,93.3,138.4,93.6,139z"/>
	<path class="st15" d="M135.6,71.7c-5,4.1-13.1,9.7-24.2,13.5c-7.5,2.5-14.2,3.4-19.4,3.7c0.9,0.8,1.9,1.6,2.9,2.4
		c8.9,6.8,18.8,8.8,26.3,9.4c0.9-4.9,2.4-8.5,3.5-10.9c1.9-3.8,3.6-5.8,4.1-6.4c1.1-1.3,2.2-2.2,3-2.9c3.2-2.7,5.4-5,6.1-6
		c0.5-0.7,0.5-1.2,0.5-1.5c-0.1-0.6-0.5-1.1-0.6-1.2c-0.4-0.4-0.7-0.6-0.9-0.7C136.5,71.3,136,71.5,135.6,71.7z"/>
	<path class="st9" d="M135.5,71.4c-4.5,3.9-12.5,9.9-23.8,13.7c-8.2,2.7-15.4,3.3-20.6,3.3c3.1,1.9,7.1,4,12.1,5.6
		c6,1.9,11.3,2.7,15.3,2.9c2.7-6.1,6-10.3,8.6-13.1c5.4-5.9,11.6-9.5,10.7-11.8c-0.3-0.9-1.5-1.2-2.4-1.4
		C135.4,70.8,135.4,71.1,135.5,71.4z"/>
	<path class="st15" d="M140.2,100.3c-0.2,0.3-0.3,0.5-0.4,0.7c-0.6-0.5-1.4-1.2-2.2-2c-0.7-0.8-1.3-1.5-1.7-2.2
		c0.2,1.6,0.6,4,2.2,6.6c0.4,0.6,0.6,0.8,1.6,2.2c0.5,0.7,0.9,1.3,1.2,1.7c-0.1-1.2-0.2-2.4-0.2-3.7c-0.1-1.2-0.2-2.4-0.1-3.6
		C140.4,100.1,140.3,100.3,140.2,100.3z"/>
	<path class="st14" d="M135.9,96.7c0.7,1.1,1.6,2.2,2.8,3.3c0.4,0.3,0.7,0.6,1.1,0.9c0.3-0.5,0.6-1,0.9-1.5"/>
	<path class="st15" d="M110.3,121.7c0.1,1.1,0.3,2.2,0.4,3.3c6.4-1.2,12.8-2.3,19.2-3.5c0-1-0.1-1.9-0.1-2.9
		C123.3,119.7,116.8,120.7,110.3,121.7z"/>
	<path class="st9" d="M110.3,122.8c3.3-0.3,6.7-0.7,10.3-1.3c3.4-0.6,6.5-1.3,9.6-2c0.3,6.4,0.5,12.8,0.8,19.2
		c-2.1,1.1-4.8,2.2-7.9,2.9c-4.4,1-8.3,0.9-11.2,0.5C111.3,135.7,110.8,129.2,110.3,122.8z"/>
	<path class="st9" d="M110.8,126.6c7,0.1,13-1.9,19.7-3.4"/>
</g>
<path class="st9" d="M182.2,164.2"/>
<path class="st9" d="M72.8,122.4c-0.8-0.7-2-0.8-2.2-0.5c-0.2,0.5,2.4,2.6,2.9,2.2C73.8,123.9,73.4,123,72.8,122.4z"/>
<path class="st9" d="M72.6,106.1c-0.8-0.7-2-0.8-2.2-0.5c-0.2,0.5,2.4,2.6,2.9,2.2C73.5,107.6,73.2,106.6,72.6,106.1z"/>
</svg>
