<?xml version="1.0" encoding="UTF-8"?>
<svg width="163px" height="163px" viewBox="0 0 163 163" version="1.1" xmlns="http://www.w3.org/2000/svg" xmlns:xlink="http://www.w3.org/1999/xlink">
    <!-- Generator: Sketch 50 (54983) - http://www.bohemiancoding.com/sketch -->
    <title>Untitled</title>
    <desc>Created with Sketch.</desc>
    <defs></defs>
    <g id="Page-1" stroke="none" stroke-width="1" fill="none" fill-rule="evenodd">
        <g id="PERCH_MASCOT" transform="translate(16.000000, 0.000000)">
            <path d="M67,59 C67.1,58.1 66.6,57.4 66.2,57.3 C65.8,57.3 65.1,57.9 65.1,58.8 C65.5,64.8 65.8,66.9 66.1,66.9 C66.4,67 66.7,64.9 67,59 Z" id="Shape" fill="#F8E4D2" fill-rule="nonzero"></path>
            <path d="M63.8,58.4 C63.7,58.3 63.2,58.2 62.7,58.4 C62.1,58.6 61.7,59.3 61.8,60 C62.9,65.4 63.6,68 64,68 C64.4,67.8 64.3,64.7 63.8,58.4 Z" id="Shape" fill="#FBAD18" fill-rule="nonzero"></path>
            <path d="M61,16.1 C60.2,14.5 59.4,14.8 55.5,11.2 C55.2,11 51.9,7.8 48.9,3.3 C47.6,1.3 47.5,0.9 47.7,0.8 C48.2,0.4 51.7,3.1 52.5,3.7 C56.3,6.6 57.7,8.7 58.3,8.4 C59.3,8.1 56.4,3.1 57.4,2.6 C58.4,2.1 62.5,6.6 64.9,10.6 C65.5,11.7 66.1,12.9 65.9,14.4 C65.8,15.9 65.1,16.8 64.7,17.5 C63.9,18.9 63,21.2 63.1,24.7 C61.9,24.6 60.8,24.5 59.6,24.4 C61.2,22 62.5,18.9 61,16.1 Z" id="Shape" fill="#939598" fill-rule="nonzero"></path>
            <path d="M69.8,15.6 C70.8,14.2 71.5,14.4 75.7,11.2 C76,11 79.5,8.2 83,3.9 C84.5,2.1 84.6,1.6 84.4,1.5 C83.9,1 80.2,3.4 79.3,3.9 C75.3,6.4 73.7,8.3 73.1,8.1 C72.2,7.7 75.5,2.9 74.5,2.3 C73.5,1.8 69,5.8 66.3,9.6 C65.5,10.6 64.9,11.9 64.9,13.3 C64.8,14.8 65.4,15.8 65.8,16.5 C66.6,18 67.2,20.3 66.8,23.8 C68,23.8 69.1,23.8 70.3,23.8 C69.1,21.5 68.1,18.3 69.8,15.6 Z" id="Shape" fill="#939598" fill-rule="nonzero"></path>
            <path d="M80.5,146.8 C82,148.4 82.8,147.7 88.5,150.7 C88.8,150.9 93.8,153.4 98.9,157.9 C101.2,159.9 101.3,160.4 101.2,160.6 C100.7,161.3 95.8,159.4 94.7,159 C89.4,156.9 86.9,154.9 86.4,155.4 C85.5,156.2 90.6,161.5 89.6,162.5 C88.6,163.5 82.3,159.6 78.2,155.5 C77.1,154.4 76,153 75.5,151 C75,149 75.4,147.5 75.7,146.4 C76.1,144.2 76.2,140.9 74.7,136.4 C76,136 77.4,135.7 78.7,135.3 C77.9,139.2 77.7,143.8 80.5,146.8 Z" id="Shape" fill="#807770" fill-rule="nonzero"></path>
            <path d="M50.7,146.7 C49.1,148.2 48.3,147.6 42.3,150.5 C42,150.7 36.8,153.1 31.5,157.4 C29.1,159.3 29,159.8 29,160 C29.5,160.7 34.7,158.8 35.8,158.5 C41.4,156.5 43.9,154.6 44.5,155.1 C45.4,155.9 40.1,160.9 41.1,161.9 C42.1,162.9 48.7,159.1 53,155.2 C54.2,154.1 55.3,152.8 55.8,150.9 C56.3,149 55.9,147.6 55.6,146.5 C55.2,144.3 55.1,141.2 56.6,136.9 C55.2,136.5 53.8,136.2 52.5,135.8 C53.4,139.5 53.6,143.8 50.7,146.7 Z" id="Shape" fill="#807770" fill-rule="nonzero"></path>
            <path d="M64,10.5 C62.3,10.5 29.9,11.7 19.1,37.9 C17.9,40.8 17.8,42 15.7,57.4 C8.9,107.2 7.5,115 11.5,124.1 C15.1,132.4 20.6,136.1 28.9,141.6 C60.3,162.6 92.8,146.8 101.1,142.3 C108.4,138.3 114.3,135 118.3,127.2 C122.2,119.6 121.3,113.6 119.3,82.8 C117.4,51.8 117.5,45.6 112.7,37.4 C108.6,30.4 103.8,26.9 98.4,22.8 C93.6,19.2 81.1,10.2 64,10.5 Z" id="Shape" fill="#D1D3D4" fill-rule="nonzero"></path>
            <path d="M33.1,61.1 C29.5,57.9 26.8,51.5 29.1,46 C31.9,39.2 36.6,35 43.7,34.6 C46.8,34.4 49.7,34.8 52.5,36.6 C55.8,38.7 57.4,41.9 57.3,45.7 C57.2,50.6 55.6,55 52.7,58.4 C51.7,59.5 48.4,63.3 42.9,64 C39.7,64.4 37.1,63.6 35.8,63 C35,62.6 34.1,62.1 33.1,61.1 Z" id="Shape" fill="#FFFFFF" fill-rule="nonzero"></path>
            <path d="M98.3,61.1 C101.9,57.8 104.6,51.4 102.3,46 C99.5,39.2 94.8,35 87.7,34.6 C84.6,34.4 81.7,34.8 78.9,36.6 C75.6,38.7 74,41.9 74.1,45.7 C74.2,50.6 75.8,55 78.7,58.4 C79.7,59.5 83,63.3 88.5,64 C91.7,64.4 94.3,63.6 95.6,63 C96.2,62.6 97.3,62.1 98.3,61.1 Z" id="Shape" fill="#FFFFFF" fill-rule="nonzero"></path>
            <path d="M88.9,54.7 C91,52.9 92.7,49.4 91.4,46.3 C89.8,42.5 87,40.3 82.8,40.1 C81,40 79.2,40.2 77.6,41.3 C75.6,42.5 74.7,44.2 74.7,46.3 C74.7,49 75.7,51.4 77.4,53.3 C77.9,53.9 79.9,56 83.2,56.3 C85.1,56.5 86.6,56 87.4,55.7 C87.8,55.5 88.3,55.2 88.9,54.7 Z" id="Shape" fill="#1278BA" fill-rule="nonzero"></path>
            <path d="M62.2,71.8 C62.7,73.1 64.9,76.4 66.7,76.2 C67.9,76.1 69,74 71.1,69.9 C71.1,69.8 71.2,69.7 71.3,69.6 C67.7,69.6 64.9,69.6 61.2,69.6 C61.9,71.4 62.2,71.8 62.2,71.8 Z" id="Shape" fill="#F7941D" fill-rule="nonzero"></path>
            <path d="M82.3,50.9 C83.3,50 84.1,48.4 83.5,46.9 C82.7,45.1 81.4,44 79.4,44 C78.5,43.9 77.7,44.1 76.9,44.5 C75.9,45 75.5,45.9 75.5,46.9 C75.5,48.2 76,49.4 76.8,50.2 C77.1,50.5 78,51.5 79.5,51.6 C80.4,51.7 81.1,51.5 81.6,51.3 C81.7,51.3 82,51.1 82.3,50.9 Z" id="Shape" fill="#231F20" fill-rule="nonzero"></path>
            <path d="M83.4,46 C83.7,45.7 83.9,45.2 83.7,44.8 C83.5,44.3 83.1,44 82.5,43.9 C82.2,43.9 82,43.9 81.8,44 C81.5,44.1 81.4,44.4 81.5,44.7 C81.5,45.1 81.6,45.5 81.8,45.7 C81.9,45.8 82.1,46.1 82.6,46.1 C82.9,46.1 83.3,46.1 83.4,46 Z" id="Shape" fill="#FFFFFF" fill-rule="nonzero"></path>
            <path d="M55.7,11.4 C57.1,12.9 58,13.1 58.7,13 C60,12.9 60.2,11.7 61.5,11.6 C63,11.5 63.8,13 64.5,12.5 C64.6,12.4 64.9,12.1 65,11.6 C65.1,11.1 64.9,10.7 64.9,10.5 C64,10.3 62.9,10.1 61.6,10.1 C58.9,10.1 56.9,10.8 55.7,11.4 Z" id="Shape" fill="#939598" fill-rule="nonzero"></path>
            <path d="M75.2,11.6 C73.6,13.1 72.5,13.3 71.7,13.1 C70.6,12.8 70.5,11.8 69.4,11.8 C68.2,11.7 67.5,12.9 66.5,12.5 C66,12.3 65.8,11.9 65.7,11.8 C65.6,11.7 65.5,11.4 65.6,11.1 C65.6,10.8 65.7,10.6 65.8,10.4 C66.2,10.3 66.7,10.3 67.3,10.3 C67.3,10.3 68.3,10.3 69.4,10.3 C71.9,10.4 73.9,11 75.2,11.6 Z" id="Shape" fill="#939598" fill-rule="nonzero"></path>
            <path d="M42.5,54.2 C40.4,52.4 38.7,48.9 40,45.8 C41.6,42 44.4,39.8 48.5,39.6 C50.3,39.5 52.1,39.7 53.7,40.8 C55.6,42 56.6,43.7 56.6,45.8 C56.6,48.5 55.6,50.9 53.9,52.7 C53.4,53.3 51.4,55.4 48.1,55.7 C46.2,55.9 44.7,55.4 43.9,55.1 C43.7,55 43.1,54.7 42.5,54.2 Z" id="Shape" fill="#1278BA" fill-rule="nonzero"></path>
            <path d="M49.1,50.9 C48.1,50 47.3,48.4 47.9,46.9 C48.7,45.1 50,44 52,44 C52.9,43.9 53.7,44.1 54.5,44.5 C55.5,45 55.9,45.9 55.9,46.9 C55.9,48.2 55.4,49.4 54.6,50.2 C54.3,50.5 53.4,51.5 51.9,51.6 C51,51.7 50.3,51.5 49.8,51.3 C49.7,51.3 49.4,51.1 49.1,50.9 Z" id="Shape" fill="#231F20" fill-rule="nonzero"></path>
            <path d="M48,46 C47.7,45.7 47.5,45.2 47.7,44.8 C47.9,44.3 48.3,44 48.9,43.9 C49.2,43.9 49.4,43.9 49.6,44 C49.9,44.1 50,44.4 49.9,44.7 C49.9,45.1 49.8,45.5 49.6,45.7 C49.5,45.8 49.3,46.1 48.8,46.1 C48.5,46.1 48.1,46.1 48,46 Z" id="Shape" fill="#FFFFFF" fill-rule="nonzero"></path>
            <path d="M27.2,28.2 C18.3,33.7 13.7,52.6 23.8,63.4 C31.1,71.2 44.3,72.8 55,66.3 C54.9,65.6 54.2,60.6 57.8,56.6 C58,56.4 60.8,53.3 65,53 C70.5,52.6 76.3,57.1 79,64.3 C80,65.2 86.2,70.7 95.3,69.8 C102.8,69.1 107.4,64.5 108.6,63.3 C115.6,56.2 115,46.9 114.9,44.9 C114.8,43.8 113.6,31.8 104.1,26.7 C98.7,23.8 93.2,24.6 87.8,25.4 C76.6,27 76.6,31.2 68.4,32.2 C58.1,33.4 55.6,27.2 40,26.6 C33.7,26.3 30.5,26.1 27.2,28.2 Z" id="Shape" fill="#CCD9EF" fill-rule="nonzero" opacity="0.18"></path>
            <path d="M72.6,59.2 C71.2,57.3 69.4,56.6 68.8,56.4 C66.9,55.8 65.2,56.2 64.6,56.3 C63.8,56.5 61.8,57 60.5,58.7 C58.9,60.9 59.3,63.6 59.6,65.3 C59.9,66.8 60.4,68 60.8,68.8 C60.9,68.9 60.9,68.9 61,69.1 C61.1,69.3 61.1,69.4 61.2,69.6 C62.4,70.1 64.6,70.7 67.3,70.5 C69,70.4 70.3,70 71.3,69.6 C71.5,69.3 71.7,69.1 71.9,68.8 C72.1,68.5 72.4,68.1 72.7,67.8 C73,67.3 73.3,66.6 73.6,65.6 C73.7,65 74.5,62 72.6,59.2 Z" id="Shape" fill="#FBAD18" fill-rule="nonzero"></path>
            <path d="M64.3,71.7 C64.5,72.9 65.4,73.7 66.4,73.8 C67.7,73.9 69,70.9 69.2,70.7 C69.3,70.6 69.4,70.5 69.5,70.4 C69.7,70.3 69.8,70.1 69.8,70.1 C68.9,70.3 67.7,70.5 66.2,70.5 C64.8,70.5 63.5,70.3 62.6,70.1 C62.8,70.4 63.1,70.5 63.2,70.6 C63.3,70.6 63.3,70.6 63.4,70.7 C63.5,70.8 63.6,70.8 63.7,70.9 C63.8,70.9 63.9,71 64.1,71.1 C64.3,71.3 64.3,71.6 64.3,71.7 Z" id="Shape" fill="#333132" fill-rule="nonzero"></path>
            <path d="M58.7,85.9 C59.2,91.8 59.5,97.9 59.6,104.3 C59.6,106.8 59.6,109.2 59.6,111.5 C59.6,113.4 59.6,116.4 59.5,120 C59.4,123.5 59.4,126.1 59.3,127.2 C59.2,131.2 59,138.1 58.7,150.6 C56.1,150.5 53.1,150.3 49.9,149.8 C45.9,149.2 42.4,148.2 39.4,147.2 C39.8,144.7 39.3,143.6 38.7,143.1 C37.7,142.2 36.4,142.9 33.1,142 C32.5,141.8 31.8,141.6 31.1,141.4 C27.7,140.2 25.1,138.7 23.4,137.6 C34.6,120.5 45.7,103.4 56.9,86.3 C57,86.3 57.2,86.2 57.3,86.2 C57.8,86.2 58.3,86 58.7,85.9 Z" id="Shape" fill="#B6B8BA" fill-rule="nonzero"></path>
            <path d="M13.4,68.6 C11.3,69.8 9,71.4 6.6,73.3 C4,75.3 1.9,77.4 0.2,79.2 C1.5,83 3.3,87.3 5.8,91.8 C6.8,93.7 7.9,95.4 9,97 C8.8,102.1 8.5,107.4 7.9,113 C7,121.8 5.6,130 4,137.3 C10.1,140.1 17.5,142.9 26.1,145 C37.8,148 48.2,148.9 56.5,149.1 C57.3,137.9 57.8,126.1 58.1,113.9 C58.3,104.3 58.3,95 58.1,86 C49.4,85.9 34.7,84.2 20.9,74.6 C18.1,72.8 15.6,70.7 13.4,68.6 Z" id="Shape" stroke="#231F20" stroke-width="0.15" fill="#F8F8F8" fill-rule="nonzero"></path>
            <path d="M51.7,85.9 C52.2,98.4 52.3,111.6 51.7,125.6 C51.4,133.5 50.9,141.1 50.3,148.5" id="Shape" stroke="#231F20" stroke-width="0.15"></path>
            <path d="M55.3,134.8 C54.5,134.1 53.3,134 53.1,134.3 C52.9,134.8 55.5,136.9 56,136.5 C56.2,136.4 55.9,135.4 55.3,134.8 Z" id="Shape" stroke="#231F20" stroke-width="0.15" fill="#F8F8F8" fill-rule="nonzero"></path>
            <path d="M12.7,68.7 C12.5,68.8 12.2,69 11.8,69.4 C11.7,69.5 11.3,70 11.2,70.6 C11.2,70.9 11.2,71.4 11.7,72.1 C12.4,73.1 14.6,75.4 17.8,78.1 C18.6,78.8 19.7,79.7 20.8,81 C21.3,81.6 23,83.6 24.9,87.4 C26,89.8 27.5,93.4 28.4,98.3 C35.9,97.7 45.8,95.7 54.7,88.9 C55.7,88.1 56.7,87.3 57.6,86.5 C52.4,86.2 45.7,85.3 38.2,82.8 C27.1,79 19,73.4 14,69.3 C13.6,69.1 13.1,68.9 12.7,68.7 Z" id="Shape" fill="#E4E5E6" fill-rule="nonzero"></path>
            <path d="M14.2,68.2 C13.3,68.4 12.1,68.7 11.8,69.6 C10.9,71.9 17.1,75.5 22.5,81.4 C25.1,84.2 28.4,88.4 31.1,94.5 C35.1,94.3 40.4,93.5 46.4,91.6 C51.4,90 55.4,87.9 58.5,86 C53.3,86 46.1,85.4 37.9,82.7 C26.6,78.9 18.6,72.9 14.1,69 C14.2,68.7 14.2,68.4 14.2,68.2 Z" id="Shape" stroke="#231F20" stroke-width="0.15" fill="#F8F8F8" fill-rule="nonzero"></path>
            <path d="M9.1,97.5 C9.1,98.7 9,99.9 9,101.1 C8.9,102.4 8.8,103.6 8.8,104.8 C9.1,104.4 9.5,103.8 10,103.1 C11,101.7 11.2,101.5 11.6,100.9 C13.2,98.3 13.6,95.9 13.8,94.3 C13.4,95 12.8,95.7 12.1,96.5 C11.3,97.3 10.5,98 9.9,98.5 C9.8,98.3 9.7,98.1 9.5,97.8 C9.3,97.8 9.2,97.6 9.1,97.5 Z" id="Shape" fill="#E4E5E6" fill-rule="nonzero"></path>
            <path d="M8.9,97 C9.2,97.5 9.5,98 9.8,98.5 C10.2,98.2 10.5,97.9 10.9,97.6 C12.1,96.5 13,95.4 13.7,94.3" id="Shape" stroke="#231F20" stroke-width="0.15"></path>
            <path d="M40.6,31 C39.1,43.6 37.6,56.2 36.1,68.7 C38.1,68.8 40.1,69 42.1,69.1 C43.8,56.2 45.4,43.3 47.1,30.4 C45,30.7 42.8,30.8 40.6,31 Z" id="Shape" fill="#FFFFFF" fill-rule="nonzero" opacity="0.6"></path>
            <path d="M88.9,30.7 C87.9,43.3 86.8,56 85.8,68.6 C87.8,68.7 89.8,68.7 91.8,68.8 C93,55.8 94.2,42.9 95.4,29.9 C93.3,30.2 91.1,30.4 88.9,30.7 Z" id="Shape" fill="#FFFFFF" fill-rule="nonzero" opacity="0.6"></path>
            <g id="Group" transform="translate(13.000000, 23.000000)" fill="#6D707C" fill-rule="nonzero">
                <path d="M55.5,6.8 C54.7,6.8 53.5,6.8 52.1,6.7 C51.7,6.7 50.5,6.6 49.6,6.5 C47.2,6.2 45.4,5.6 44.6,5.3 C42.6,4.6 35.5,2.1 31.6,1.3 C29,0.8 22.2,-0.6 15.4,1.2 C13.5,1.7 9.4,2.9 5.9,6.5 C5.9,6.5 5.3,7.1 4.8,7.8 C1.3,12.1 -1.8,22.2 1.5,32.4 C3.5,38.7 7,42.5 7.8,43.3 C9.1,44.7 14.1,49.6 22.1,51.1 C24.1,51.5 28.2,52.2 33,50.8 C35.2,50.2 36.8,49.3 38,48.6 C38.3,48.7 40.6,49.8 42.7,48.6 C44.3,47.7 44.8,45.9 45,45.4 C45.5,43.6 44.8,42.8 45,40.8 C45,40.5 45.3,38.3 46.7,36.5 C49,33.5 53.1,33.5 53.8,33.5 C53.9,32.7 54,31.9 54.1,31.1 C52.8,31 50.7,31.1 48.3,32.1 C47.9,32.3 46.5,32.8 45.1,34.1 C44.3,34.8 43.6,35.7 42.8,36.6 C41.3,38.4 40.3,40.2 39.6,41.7 C38.7,42.6 37.4,43.8 35.5,44.8 C32.2,46.6 29.2,46.7 27.6,46.7 C25.8,46.8 21.5,46.8 17.4,44.3 C11.8,40.9 10,35.1 9.5,32.5 C8.2,26.2 10.2,20.2 13.4,16.3 C15.4,13.9 17.5,12.5 18.5,11.9 C19.6,11.2 24.5,8.4 31,8.7 C34.4,8.9 37.1,9.9 38.6,10.4 C40.2,11 41.5,11.6 43.9,12.8 C47.5,14.5 48.9,15.2 51.1,15.5 C52.5,15.7 53.7,15.7 54.5,15.6 C54.9,12.6 55.2,9.7 55.5,6.8 Z" id="Shape"></path>
                <path d="M52.7,6.8 C53.4,6.9 54.4,6.9 55.5,6.8 C55.5,6.8 56.6,6.7 57.8,6.5 C60.8,5.9 70.8,2.4 75.5,1.3 C78.4,0.6 84.6,-0.7 91.7,1.2 C93.6,1.7 97.7,2.9 101.2,6.5 C101.2,6.5 101.8,7.1 102.3,7.8 C105.8,12.1 108.9,22.2 105.6,32.4 C103.6,38.7 100.1,42.5 99.3,43.3 C98,44.7 93,49.6 85,51.1 C83,51.5 78.9,52.2 74.1,50.8 C71.9,50.2 70.3,49.3 69.1,48.6 C68.8,48.7 66.5,49.8 64.4,48.6 C62.8,47.7 62.3,45.9 62.1,45.4 C61.6,43.6 62.3,42.8 62.1,40.8 C62.1,40.4 61.8,38.3 60.4,36.5 C58.2,33.7 54.5,33.5 53.7,33.5 C53.7,32.7 53.7,31.9 53.7,31.1 C54.3,31.1 55.1,31.1 56.1,31.3 C56.7,31.4 57.7,31.6 58.7,32.1 C60.1,32.7 61.2,33.5 61.9,34.1 C62.7,34.8 63.4,35.7 64.2,36.6 C65.7,38.4 66.7,40.2 67.4,41.7 C68.3,42.6 69.6,43.8 71.5,44.8 C74.8,46.6 77.8,46.7 79.4,46.7 C81.2,46.8 85.5,46.8 89.6,44.3 C95.2,40.9 97,35.1 97.5,32.5 C98.8,26.2 96.8,20.2 93.6,16.3 C91.6,13.9 89.5,12.5 88.5,11.9 C87.4,11.2 82.5,8.4 76,8.7 C72.6,8.9 69.9,9.9 68.4,10.4 C66.8,11 65.5,11.6 63.1,12.8 C60.1,14.3 58.5,15.2 55.9,15.5 C54.9,15.6 54.1,15.6 53.5,15.6 C53.3,12.6 53,9.7 52.7,6.8 Z" id="Shape"></path>
            </g>
            <g id="Group" transform="translate(13.000000, 21.000000)" fill="#939598" fill-rule="nonzero">
                <path d="M55.5,7.1 C54.7,7.1 53.5,7.1 52.1,7 C51.7,7 50.5,6.9 49.6,6.8 C47.2,6.5 45.4,5.9 44.6,5.6 C42.6,4.9 35.5,2.4 31.6,1.6 C29,1.1 22.2,-0.3 15.4,1.5 C13.5,2 9.4,3.2 5.9,6.8 C5.9,6.8 5.3,7.4 4.8,8.1 C1.3,12.4 -1.8,22.5 1.5,32.7 C3.5,39 7,42.8 7.8,43.6 C9.1,45 14.1,49.9 22.1,51.4 C24.1,51.8 28.2,52.5 33,51.1 C35.2,50.5 36.8,49.6 38,48.9 C38.3,49 40.6,50.1 42.7,48.9 C44.3,48 44.8,46.2 45,45.7 C45.5,43.9 44.8,43.1 45,41.1 C45,40.8 45.3,38.6 46.7,36.8 C49,33.8 53.1,33.8 53.8,33.8 C53.9,33 54,32.2 54.1,31.4 C52.8,31.3 50.7,31.4 48.3,32.4 C47.9,32.6 46.5,33.1 45.1,34.4 C44.3,35.1 43.6,36 42.8,36.9 C41.3,38.7 40.3,40.5 39.6,42 C38.7,42.9 37.4,44.1 35.5,45.1 C32.2,46.9 29.2,47 27.6,47 C25.8,47.1 21.5,47.1 17.4,44.6 C11.8,41.2 10,35.4 9.5,32.8 C8.2,26.5 10.2,20.5 13.4,16.6 C15.4,14.2 17.5,12.8 18.5,12.2 C19.6,11.5 24.5,8.7 31,9 C34.4,9.2 37.1,10.2 38.6,10.7 C40.2,11.3 41.5,11.9 43.9,13.1 C47.5,14.8 48.9,15.5 51.1,15.8 C52.5,16 53.7,16 54.5,15.9 C54.9,12.8 55.2,9.9 55.5,7.1 Z" id="Shape"></path>
                <path d="M52.7,7.1 C53.4,7.2 54.4,7.2 55.5,7.1 C55.5,7.1 56.6,7 57.8,6.8 C60.8,6.2 70.8,2.7 75.5,1.6 C78.4,0.9 84.6,-0.4 91.7,1.5 C93.6,2 97.7,3.2 101.2,6.8 C101.2,6.8 101.8,7.4 102.3,8.1 C105.8,12.4 108.9,22.5 105.6,32.7 C103.6,39 100.1,42.8 99.3,43.6 C98,45 93,49.9 85,51.4 C83,51.8 78.9,52.5 74.1,51.1 C71.9,50.5 70.3,49.6 69.1,48.9 C68.8,49 66.5,50.1 64.4,48.9 C62.8,48 62.3,46.2 62.1,45.7 C61.6,43.9 62.3,43.1 62.1,41.1 C62.1,40.7 61.8,38.6 60.4,36.8 C58.2,34 54.5,33.8 53.7,33.8 C53.7,33 53.7,32.2 53.7,31.4 C54.3,31.4 55.1,31.4 56.1,31.6 C56.7,31.7 57.7,31.9 58.7,32.4 C60.1,33 61.2,33.8 61.9,34.4 C62.7,35.1 63.4,36 64.2,36.9 C65.7,38.7 66.7,40.5 67.4,42 C68.3,42.9 69.6,44.1 71.5,45.1 C74.8,46.9 77.8,47 79.4,47 C81.2,47.1 85.5,47.1 89.6,44.6 C95.2,41.2 97,35.4 97.5,32.8 C98.8,26.5 96.8,20.5 93.6,16.6 C91.6,14.2 89.5,12.8 88.5,12.2 C87.4,11.5 82.5,8.7 76,9 C72.6,9.2 69.9,10.2 68.4,10.7 C66.8,11.3 65.5,11.9 63.1,13.1 C60.1,14.6 58.5,15.5 55.9,15.8 C54.9,15.9 54.1,15.9 53.5,15.9 C53.3,12.8 53,9.9 52.7,7.1 Z" id="Shape"></path>
            </g>
            <path d="M13.5,39.6 C13.4,40.1 13.3,40.6 13.3,41.2 C13.2,42 13.2,42.7 13.1,43.4 C13.5,43.5 14,43.6 14.6,43.6 C15.3,43.6 15.9,43.6 16.4,43.6 C16.6,43.1 16.7,42.5 16.8,41.9 C16.9,41.2 16.9,40.5 16.8,40 C16.3,39.9 15.8,39.8 15.2,39.8 C14.7,39.6 14.1,39.6 13.5,39.6 Z" id="Shape" fill="#231F20" fill-rule="nonzero"></path>
            <path d="M119.8,40.3 C119.9,41 120,41.7 120,42.4 C120,43 120.1,43.6 120.1,44.1 C119.7,44.2 119.2,44.3 118.6,44.3 C117.9,44.3 117.2,44.3 116.8,44.2 C116.6,43.7 116.5,43.1 116.4,42.5 C116.3,41.8 116.3,41.1 116.4,40.6 C116.9,40.5 117.4,40.4 118,40.4 C118.2,40.4 118.5,40.3 118.8,40.3 C119.2,40.3 119.5,40.3 119.8,40.3 Z" id="Shape" fill="#231F20" fill-rule="nonzero"></path>
            <path d="M19.8,116.2 C19.8,117.2 19.7,118.1 19.7,119.1 C26.1,120.3 32.5,121.4 38.9,122.6 C39,121.5 39.2,120.4 39.3,119.3 C32.8,118.3 26.3,117.3 19.8,116.2 Z" id="Shape" fill="#E4E5E6" fill-rule="nonzero"></path>
            <path d="M37.7,139.7 C34.8,140.1 30.9,140.2 26.5,139.2 C23.4,138.5 20.7,137.4 18.6,136.3 C18.9,129.9 19.1,123.5 19.4,117.1 C22.5,117.8 25.6,118.5 29,119.1 C32.6,119.7 36,120.1 39.3,120.4 C38.8,126.8 38.3,133.3 37.7,139.7 Z" id="Shape" stroke="#231F20" stroke-width="0.15" fill="#F8F8F8" fill-rule="nonzero"></path>
            <path d="M19.1,120.8 C25.8,122.3 31.8,124.3 38.8,124.2" id="Shape" stroke="#231F20" stroke-width="0.15" fill="#F8F8F8" fill-rule="nonzero"></path>
            <g id="Group" transform="translate(73.000000, 67.000000)">
                <path d="M2.3,18.7 C2.4,18.7 2.6,18.8 2.7,18.8 C13.9,35.9 25,53 36.2,70.1 C34.5,71.2 31.9,72.7 28.5,73.9 C27.8,74.1 27.1,74.3 26.5,74.5 C23.2,75.4 21.9,74.7 20.9,75.6 C20.3,76.1 19.8,77.2 20.2,79.7 C17.2,80.7 13.7,81.6 9.7,82.3 C6.5,82.8 3.5,83.1 0.9,83.1 C0.6,70.6 0.4,63.7 0.3,59.7 C0.3,58.6 0.2,56 0.1,52.5 C1.42108547e-14,48.8 1.42108547e-14,45.8 1.42108547e-14,44 C1.42108547e-14,41.6 1.42108547e-14,39.2 1.42108547e-14,36.8 C0.1,30.4 0.4,24.3 0.9,18.4 C1.4,18.5 1.8,18.6 2.3,18.7 Z" id="Shape" fill="#B6B8BA" fill-rule="nonzero"></path>
                <path d="M38.7,7.1 C24.9,16.7 10.2,18.4 1.5,18.5 C1.3,27.5 1.3,36.8 1.5,46.4 C1.7,58.6 2.3,70.3 3.1,81.6 C11.4,81.4 21.9,80.5 33.5,77.5 C42.1,75.3 49.5,72.5 55.6,69.8 C54,62.4 52.7,54.3 51.7,45.5 C51.1,39.9 50.8,34.6 50.6,29.5 C51.7,27.9 52.8,26.2 53.8,24.3 C56.3,19.8 58.1,15.5 59.4,11.7 C57.7,9.9 55.6,7.8 53,5.8 C50.6,3.9 48.3,2.3 46.2,1.1 C44,3.1 41.5,5.2 38.7,7.1 Z" id="Shape" stroke="#231F20" stroke-width="0.15" fill="#F8F8F8" fill-rule="nonzero"></path>
                <path d="M9.3,80.9 C8.7,73.5 8.2,65.9 7.9,58 C7.3,44 7.4,30.8 7.9,18.3" id="Shape" stroke="#231F20" stroke-width="0.15"></path>
                <path d="M2.9,35.5 C3.2,36.2 5.3,36.2 5.7,35.3 C6,34.7 5.4,33.7 4.7,33.5 C3.7,33.2 2.6,34.9 2.9,35.5 Z" id="Shape" stroke="#231F20" stroke-width="0.15" fill="#F8F8F8" fill-rule="nonzero"></path>
                <path d="M3.1,53.1 C3.4,53.8 5.5,53.8 5.9,52.9 C6.2,52.3 5.6,51.3 4.9,51.1 C3.9,50.9 2.8,52.5 3.1,53.1 Z" id="Shape" stroke="#231F20" stroke-width="0.15" fill="#F8F8F8" fill-rule="nonzero"></path>
                <path d="M3.6,69 C3.9,69.7 6,69.7 6.4,68.8 C6.7,68.2 6.1,67.2 5.4,67 C4.3,66.8 3.3,68.4 3.6,69 Z" id="Shape" stroke="#231F20" stroke-width="0.15" fill="#F8F8F8" fill-rule="nonzero"></path>
                <path d="M45.6,1.7 C40.6,5.8 32.5,11.4 21.4,15.2 C13.9,17.7 7.2,18.6 2,18.9 C2.9,19.7 3.9,20.5 4.9,21.3 C13.8,28.1 23.7,30.1 31.2,30.7 C32.1,25.8 33.6,22.2 34.7,19.8 C36.6,16 38.3,14 38.8,13.4 C39.9,12.1 41,11.2 41.8,10.5 C45,7.8 47.2,5.5 47.9,4.5 C48.4,3.8 48.4,3.3 48.4,3 C48.3,2.4 47.9,1.9 47.8,1.8 C47.4,1.4 47.1,1.2 46.9,1.1 C46.5,1.3 46,1.5 45.6,1.7 Z" id="Shape" fill="#E4E5E6" fill-rule="nonzero"></path>
                <path d="M45.5,1.4 C41,5.3 33,11.3 21.7,15.1 C13.5,17.8 6.3,18.4 1.1,18.4 C4.2,20.3 8.2,22.4 13.2,24 C19.2,25.9 24.5,26.7 28.5,26.9 C31.2,20.8 34.5,16.6 37.1,13.8 C42.5,7.9 48.7,4.3 47.8,2 C47.5,1.1 46.3,0.8 45.4,0.6 C45.4,0.8 45.4,1.1 45.5,1.4 Z" id="Shape" stroke="#231F20" stroke-width="0.15" fill="#F8F8F8" fill-rule="nonzero"></path>
                <path d="M50.2,30.3 C50,30.6 49.9,30.8 49.8,31 C49.2,30.5 48.4,29.8 47.6,29 C46.9,28.2 46.3,27.5 45.9,26.8 C46.1,28.4 46.5,30.8 48.1,33.4 C48.5,34 48.7,34.2 49.7,35.6 C50.2,36.3 50.6,36.9 50.9,37.3 C50.8,36.1 50.7,34.9 50.7,33.6 C50.6,32.4 50.5,31.2 50.6,30 C50.4,30.1 50.3,30.3 50.2,30.3 Z" id="Shape" fill="#E4E5E6" fill-rule="nonzero"></path>
                <path d="M45.9,26.7 C46.6,27.8 47.5,28.9 48.7,30 C49.1,30.3 49.4,30.6 49.8,30.9 C50.1,30.4 50.4,29.9 50.7,29.4" id="Shape" stroke="#231F20" stroke-width="0.15"></path>
                <path d="M20.3,51.7 C20.4,52.8 20.6,53.9 20.7,55 C27.1,53.8 33.5,52.7 39.9,51.5 C39.9,50.5 39.8,49.6 39.8,48.6 C33.3,49.7 26.8,50.7 20.3,51.7 Z" id="Shape" fill="#E4E5E6" fill-rule="nonzero"></path>
                <path d="M20.3,52.8 C23.6,52.5 27,52.1 30.6,51.5 C34,50.9 37.1,50.2 40.2,49.5 C40.5,55.9 40.7,62.3 41,68.7 C38.9,69.8 36.2,70.9 33.1,71.6 C28.7,72.6 24.8,72.5 21.9,72.1 C21.3,65.7 20.8,59.2 20.3,52.8 Z" id="Shape" stroke="#231F20" stroke-width="0.15" fill="#F8F8F8" fill-rule="nonzero"></path>
                <path d="M20.8,56.6 C27.8,56.7 33.8,54.7 40.5,53.2" id="Shape" stroke="#231F20" stroke-width="0.15" fill="#F8F8F8" fill-rule="nonzero"></path>
            </g>
            <path d="M55.8,119.4 C55,118.7 53.8,118.6 53.6,118.9 C53.4,119.4 56,121.5 56.5,121.1 C56.8,120.9 56.4,120 55.8,119.4 Z" id="Shape" stroke="#231F20" stroke-width="0.15" fill="#F8F8F8" fill-rule="nonzero"></path>
            <path d="M55.6,103.1 C54.8,102.4 53.6,102.3 53.4,102.6 C53.2,103.1 55.8,105.2 56.3,104.8 C56.5,104.6 56.2,103.6 55.6,103.1 Z" id="Shape" stroke="#231F20" stroke-width="0.15" fill="#F8F8F8" fill-rule="nonzero"></path>
        </g>
    </g>
</svg>