<?xml version="1.0" encoding="UTF-8"?>
<svg width="553px" height="581px" viewBox="0 0 553 581" version="1.1" xmlns="http://www.w3.org/2000/svg" xmlns:xlink="http://www.w3.org/1999/xlink">
    <!-- Generator: Sketch 50 (54983) - http://www.bohemiancoding.com/sketch -->
    <title>bulb</title>
    <desc>Created with Sketch.</desc>
    <defs>
        <path d="M1137.84283,525.531834 L1265.81491,525.531834 C1265.81491,550.281804 1265.81491,566.299275 1265.81491,573.584248 C1265.81491,580.869221 1250.94743,584.511708 1221.21246,584.511708 C1214.70953,591.019984 1208.24834,594.274121 1201.82887,594.274121 C1195.28395,594.274121 1188.33769,591.019984 1180.99008,584.511708 C1152.22525,584.511708 1137.84283,580.869221 1137.84283,573.584248 C1137.84283,566.299275 1137.84283,550.281804 1137.84283,525.531834 Z" id="path-1"></path>
        <filter x="-12.9%" y="-19.6%" width="125.8%" height="148.0%" filterUnits="objectBoundingBox" id="filter-2">
            <feOffset dx="0" dy="3" in="SourceAlpha" result="shadowOffsetOuter1"></feOffset>
            <feGaussianBlur stdDeviation="5" in="shadowOffsetOuter1" result="shadowBlurOuter1"></feGaussianBlur>
            <feColorMatrix values="0 0 0 0 0.624468537   0 0 0 0 0.624468537   0 0 0 0 0.624468537  0 0 0 0.5 0" type="matrix" in="shadowBlurOuter1"></feColorMatrix>
        </filter>
    </defs>
    <g id="Page-1" stroke="none" stroke-width="1" fill="none" fill-rule="evenodd">
        <g id="light-bulb" transform="translate(-927.000000, -41.000000)">
            <polygon id="Path" fill="#F5CF5F" points="1121.08635 434.185901 1145.54636 567.909055 1257.70215 567.909055 1277.32178 434.185901 1290.6284 303.426271 1206.36488 259.096887 1083.77149 303.426271"></polygon>
            <ellipse id="Oval" fill="#F5CF5F" cx="1207.68498" cy="324.576662" rx="167.470959" ry="167.838964"></ellipse>
            <path d="M1179.22069,537 C1179.22069,477.929109 1179.22069,440.232318 1179.22069,423.909625 C1179.22069,399.425586 1131,412.76684 1131,394.315097 C1131,375.863354 1131.32363,332 1141.58329,332 C1151.84295,332 1151.84295,354.586816 1156.8068,354.586816 C1161.77064,354.586816 1163.26941,332 1171.571,332 C1179.87259,332 1182.95362,354.586816 1188.64493,354.586816 C1194.33623,354.586816 1195.48116,332 1203.22908,332 C1210.977,332 1213.35321,354.586816 1218.97513,354.586816 C1224.59704,354.586816 1226.28785,332 1233.39048,332 C1240.49311,332 1242.53559,354.586816 1247.53295,354.586816 C1252.53031,354.586816 1251.17162,332 1261.24973,332 C1271.32785,332 1271.32785,372.372588 1271.32785,394.315097 C1271.32785,416.257605 1223.08259,396.733021 1223.08259,423.909625 C1223.08259,442.027361 1223.08259,479.724153 1223.08259,537 L1179.22069,537 Z" id="Path-2" stroke="#FFFFFF" stroke-width="2"></path>
            <g id="Path-5">
                <use fill="black" fill-opacity="1" filter="url(#filter-2)" xlink:href="#path-1"></use>
                <use fill="#D8D8D8" fill-rule="evenodd" xlink:href="#path-1"></use>
            </g>
            <polygon id="Path-6" fill="#CFCFCF" points="1140.8468 538.841383 1260.5761 557.9319 1260.5761 548.386641 1140.8468 533.058245"></polygon>
            <polygon id="Path-6" fill="#CFCFCF" points="1140.8468 556.904769 1260.5761 575.995286 1260.5761 566.450028 1140.8468 551.121631"></polygon>
            <ellipse id="Oval-2" fill-opacity="0.3" fill="#FFF95B" cx="1207.68498" cy="329.092509" rx="239.56608" ry="240.092509"></ellipse>
        </g>
    </g>
</svg>