<?xml version="1.0" encoding="utf-8"?>
<!-- Generator: Adobe Illustrator 21.0.0, SVG Export Plug-In . SVG Version: 6.00 Build 0)  -->
<svg version="1.1" id="Layer_1" xmlns="http://www.w3.org/2000/svg" xmlns:xlink="http://www.w3.org/1999/xlink" x="0px" y="0px"
	 viewBox="0 0 219.3 211.9" style="enable-background:new 0 0 219.3 211.9;" xml:space="preserve">
<style type="text/css">
	.st0{fill:#939598;}
	.st1{fill:#FFFFFF;}
</style>
<g>
	<circle class="st0" cx="110.7" cy="104.7" r="98.1"/>
	<g>
		<path class="st1" d="M152.1,52.5c-0.5-0.6-4-5-9.5-8.4c-12.8-8-27.8-5.5-32-4.7c0,0-13.4,2.1-24.5,10.4
			c-5.7,4.2-11.2,10.5-11.7,11.1c-1.2,1.4-2.3,2.8-2.3,2.8c-1.8,2.4-3.1,4.4-4,5.9c-1.5,2.4-4.2,6.9-6.3,12.9
			c-2.2,6.5-2.6,11.6-3,17.3c0,0-0.7,8.5,0.4,19.1c0.1,1.1,0.2,2,0.2,2c0.3,1.9,0.7,3.8,1.1,5.7c0.3,1.5,0.6,2.9,0.9,4.4
			c0.4,1.6,0.8,3.1,1.2,4.7c0.2,0.8,0.3,1.6,0.5,2.4c0.6,1.8,0.9,3.7,1.7,5.5c0.4,0.8,0.5,1.8,0.9,2.6c0.7,1.8,1.3,3.5,2.1,5.3
			c0.7,1.5,1.1,3.1,1.8,4.6c0.6,1.2,0.9,2.5,1.6,3.8c0.5,1,1,2,1.6,3c1.5,2.7,2.2,4,3.3,4.9c1.4,1.1,2.9,1.6,3.4,1.7
			c1.6,0.4,2.9,0.2,3.2,0.1c0.7-0.1,2.2-0.2,3.3-1.4c0.8-0.9,1.5-1.8,2-2.9c0.6-1.3,0.5-2.7,0.3-4c-0.2-1.2-0.7-2.2-1.2-3.3
			c-1.4-2.8-2.6-5.6-4-8.4c-1.3-2.6-2.3-5.2-3.2-8c-0.6-2-1.3-3.9-1.9-5.9c-1.5-4.9-1.2-4.6-2-6.8c-0.2-0.5-0.6-1.7-0.9-3.1
			c-0.1-0.7-0.3-1.6-0.4-2.8c2.6,0.1,6.3,0.1,10.8-0.1c7.8-0.3,17.9-0.8,29.5-4.3c5.5-1.7,14.6-4.5,24.3-11.6
			c5.3-3.9,12.4-9.3,16.5-18.6c0.9-2.1,3.1-7,3.3-13.8c0.1-3.7-0.4-6.4-0.5-7.4C158.5,65.4,157.1,58.9,152.1,52.5z M148.1,81.3
			c-2.3,6.8-6.7,10.9-10.3,14.1c-7.3,6.5-14.7,9.3-20.5,11.4c-7.6,2.8-13.9,3.7-18.4,4.4c-7.7,1.1-14.2,1.2-17.5,1.3
			c-3.1,0-5.8,0-7.8-0.1c-0.5-3.9-0.8-9.2-0.3-15.4c0.2-2.2,0.7-7.7,2.4-13.5c0.2-0.5,0.4-1.3,0.7-2.3C82,64.7,95.5,55.5,95.5,55.5
			c2.6-1.8,12.2-8.1,25.3-8.3c2.7,0,6.8-0.1,11.6,1.7c2.3,0.8,10,3.8,14.3,11.8c0.4,0.7,2.3,4.4,2.8,9.7
			C149.6,71.7,149.9,76.1,148.1,81.3z"/>
		<path class="st1" d="M118.7,74.6c-1.8-1.5-3.2-4.4-2.1-6.9c1.4-3.1,3.7-4.9,7.2-5.1c1.6-0.1,3,0.1,4.4,1c1.6,1,2.4,2.4,2.4,4.1
			c0,2.2-0.8,4.2-2.2,5.7c-0.5,0.5-2.1,2.2-4.8,2.5c-1.6,0.2-2.9-0.2-3.6-0.5C119.7,75.3,119.2,75,118.7,74.6z"/>
		<path class="st1" d="M153.3,57.9c1,6.5,2,13.1,3,19.6c0.7-0.6,1.4-1.4,2.3-2.2c2.7-2.4,5-4,7.4-5.7c7.8-5.5,9-6.1,8.8-7.1
			c-0.2-0.9-1.5-1.6-7-2.7C164.4,59.1,159.4,58.3,153.3,57.9z"/>
	</g>
</g>
</svg>
