<?xml version="1.0" encoding="UTF-8"?>
<svg width="72px" height="72px" viewBox="0 0 72 72" version="1.1" xmlns="http://www.w3.org/2000/svg" xmlns:xlink="http://www.w3.org/1999/xlink">
    <!-- Generator: Sketch 50 (54983) - http://www.bohemiancoding.com/sketch -->
    <title>MASCOT_LEFT_ARM</title>
    <desc>Created with Sketch.</desc>
    <defs></defs>
    <g id="Page-1" stroke="none" stroke-width="1" fill="none" fill-rule="evenodd">
        <path d="M33,27.8 C8.5,46.9 3.2,54.7 4.7,57.6 C7.4,62.6 33.9,60.6 38,45.8 C40.4,37.2 34.1,29 33,27.8 Z" id="Shape" fill="#939598" fill-rule="nonzero"></path>
        <path d="M33.4,27.6 C31.3,28.8 29,30.4 26.6,32.3 C24,34.3 21.9,36.4 20.2,38.2 C21.5,42 23.3,46.3 25.8,50.8 C26.8,52.7 27.9,54.4 29,56 C28.8,61.1 54.7,43.2 40.9,33.6 C38.1,31.8 35.6,29.7 33.4,27.6 Z" id="Shape" fill="#F8F8F8" fill-rule="nonzero"></path>
    </g>
</svg>