<?xml version="1.0" encoding="UTF-8"?>
<svg width="1766px" height="1313px" viewBox="0 0 1766 1313" version="1.1" xmlns="http://www.w3.org/2000/svg" xmlns:xlink="http://www.w3.org/1999/xlink">
    <!-- Generator: Sketch 50 (54983) - http://www.bohemiancoding.com/sketch -->
    <title>perch_page</title>
    <desc>Created with Sketch.</desc>
    <defs>
        <rect id="path-1" x="0" y="0" width="758" height="581" rx="8"></rect>
        <filter x="-3.8%" y="-4.3%" width="107.7%" height="110.0%" filterUnits="objectBoundingBox" id="filter-2">
            <feOffset dx="0" dy="4" in="SourceAlpha" result="shadowOffsetOuter1"></feOffset>
            <feGaussianBlur stdDeviation="9" in="shadowOffsetOuter1" result="shadowBlurOuter1"></feGaussianBlur>
            <feColorMatrix values="0 0 0 0 0.658960459   0 0 0 0 0.658960459   0 0 0 0 0.658960459  0 0 0 0.5 0" type="matrix" in="shadowBlurOuter1"></feColorMatrix>
        </filter>
        <rect id="path-3" x="192" y="253" width="521" height="107" rx="4"></rect>
        <filter x="-2.7%" y="-9.3%" width="105.4%" height="126.2%" filterUnits="objectBoundingBox" id="filter-4">
            <feOffset dx="0" dy="4" in="SourceAlpha" result="shadowOffsetOuter1"></feOffset>
            <feGaussianBlur stdDeviation="4" in="shadowOffsetOuter1" result="shadowBlurOuter1"></feGaussianBlur>
            <feColorMatrix values="0 0 0 0 0.54985119   0 0 0 0 0.54985119   0 0 0 0 0.54985119  0 0 0 0.5 0" type="matrix" in="shadowBlurOuter1"></feColorMatrix>
        </filter>
        <path d="M1,1.5 L264.5,1.5" id="path-5"></path>
        <filter x="-6.2%" y="-483.3%" width="112.5%" height="1200.0%" filterUnits="objectBoundingBox" id="filter-6">
            <feMorphology radius="2" operator="dilate" in="SourceAlpha" result="shadowSpreadOuter1"></feMorphology>
            <feOffset dx="0" dy="2" in="shadowSpreadOuter1" result="shadowOffsetOuter1"></feOffset>
            <feMorphology radius="2" operator="erode" in="SourceAlpha" result="shadowInner"></feMorphology>
            <feOffset dx="0" dy="2" in="shadowInner" result="shadowInner"></feOffset>
            <feComposite in="shadowOffsetOuter1" in2="shadowInner" operator="out" result="shadowOffsetOuter1"></feComposite>
            <feGaussianBlur stdDeviation="4.5" in="shadowOffsetOuter1" result="shadowBlurOuter1"></feGaussianBlur>
            <feColorMatrix values="0 0 0 0 0.663159014   0 0 0 0 0.663159014   0 0 0 0 0.663159014  0 0 0 0.5 0" type="matrix" in="shadowBlurOuter1"></feColorMatrix>
        </filter>
        <path d="M662,211.5 L662,585" id="path-7"></path>
        <filter x="-825.0%" y="-3.9%" width="1750.0%" height="108.8%" filterUnits="objectBoundingBox" id="filter-8">
            <feMorphology radius="2" operator="dilate" in="SourceAlpha" result="shadowSpreadOuter1"></feMorphology>
            <feOffset dx="0" dy="2" in="shadowSpreadOuter1" result="shadowOffsetOuter1"></feOffset>
            <feMorphology radius="2" operator="erode" in="SourceAlpha" result="shadowInner"></feMorphology>
            <feOffset dx="0" dy="2" in="shadowInner" result="shadowInner"></feOffset>
            <feComposite in="shadowOffsetOuter1" in2="shadowInner" operator="out" result="shadowOffsetOuter1"></feComposite>
            <feGaussianBlur stdDeviation="4.5" in="shadowOffsetOuter1" result="shadowBlurOuter1"></feGaussianBlur>
            <feColorMatrix values="0 0 0 0 0.663159014   0 0 0 0 0.663159014   0 0 0 0 0.663159014  0 0 0 0.5 0" type="matrix" in="shadowBlurOuter1"></feColorMatrix>
        </filter>
        <path d="M1,1.5 L1,47" id="path-9"></path>
        <filter x="-825.0%" y="-31.5%" width="1750.0%" height="171.7%" filterUnits="objectBoundingBox" id="filter-10">
            <feMorphology radius="2" operator="dilate" in="SourceAlpha" result="shadowSpreadOuter1"></feMorphology>
            <feOffset dx="0" dy="2" in="shadowSpreadOuter1" result="shadowOffsetOuter1"></feOffset>
            <feMorphology radius="2" operator="erode" in="SourceAlpha" result="shadowInner"></feMorphology>
            <feOffset dx="0" dy="2" in="shadowInner" result="shadowInner"></feOffset>
            <feComposite in="shadowOffsetOuter1" in2="shadowInner" operator="out" result="shadowOffsetOuter1"></feComposite>
            <feGaussianBlur stdDeviation="4.5" in="shadowOffsetOuter1" result="shadowBlurOuter1"></feGaussianBlur>
            <feColorMatrix values="0 0 0 0 0.663159014   0 0 0 0 0.663159014   0 0 0 0 0.663159014  0 0 0 0.5 0" type="matrix" in="shadowBlurOuter1"></feColorMatrix>
        </filter>
        <path d="M956.5,114.5 L1232,114.5" id="path-11"></path>
        <filter x="-6.0%" y="-483.3%" width="112.0%" height="1200.0%" filterUnits="objectBoundingBox" id="filter-12">
            <feMorphology radius="2" operator="dilate" in="SourceAlpha" result="shadowSpreadOuter1"></feMorphology>
            <feOffset dx="0" dy="2" in="shadowSpreadOuter1" result="shadowOffsetOuter1"></feOffset>
            <feMorphology radius="2" operator="erode" in="SourceAlpha" result="shadowInner"></feMorphology>
            <feOffset dx="0" dy="2" in="shadowInner" result="shadowInner"></feOffset>
            <feComposite in="shadowOffsetOuter1" in2="shadowInner" operator="out" result="shadowOffsetOuter1"></feComposite>
            <feGaussianBlur stdDeviation="4.5" in="shadowOffsetOuter1" result="shadowBlurOuter1"></feGaussianBlur>
            <feColorMatrix values="0 0 0 0 0.663159014   0 0 0 0 0.663159014   0 0 0 0 0.663159014  0 0 0 0.5 0" type="matrix" in="shadowBlurOuter1"></feColorMatrix>
        </filter>
        <path d="M665.5,211.5 L665.5,587" id="path-13"></path>
        <filter x="-550.0%" y="-3.9%" width="1200.0%" height="108.8%" filterUnits="objectBoundingBox" id="filter-14">
            <feMorphology radius="2" operator="dilate" in="SourceAlpha" result="shadowSpreadOuter1"></feMorphology>
            <feOffset dx="0" dy="2" in="shadowSpreadOuter1" result="shadowOffsetOuter1"></feOffset>
            <feMorphology radius="2" operator="erode" in="SourceAlpha" result="shadowInner"></feMorphology>
            <feOffset dx="0" dy="2" in="shadowInner" result="shadowInner"></feOffset>
            <feComposite in="shadowOffsetOuter1" in2="shadowInner" operator="out" result="shadowOffsetOuter1"></feComposite>
            <feGaussianBlur stdDeviation="4.5" in="shadowOffsetOuter1" result="shadowBlurOuter1"></feGaussianBlur>
            <feColorMatrix values="0 0 0 0 0.663159014   0 0 0 0 0.663159014   0 0 0 0 0.663159014  0 0 0 0.5 0" type="matrix" in="shadowBlurOuter1"></feColorMatrix>
        </filter>
        <circle id="path-15" cx="103.5" cy="103.5" r="103.5"></circle>
        <filter x="-7.5%" y="-6.0%" width="115.0%" height="115.0%" filterUnits="objectBoundingBox" id="filter-16">
            <feMorphology radius="0.5" operator="dilate" in="SourceAlpha" result="shadowSpreadOuter1"></feMorphology>
            <feOffset dx="0" dy="3" in="shadowSpreadOuter1" result="shadowOffsetOuter1"></feOffset>
            <feGaussianBlur stdDeviation="4.5" in="shadowOffsetOuter1" result="shadowBlurOuter1"></feGaussianBlur>
            <feComposite in="shadowBlurOuter1" in2="SourceAlpha" operator="out" result="shadowBlurOuter1"></feComposite>
            <feColorMatrix values="0 0 0 0 0.512622236   0 0 0 0 0.512622236   0 0 0 0 0.512622236  0 0 0 0.5 0" type="matrix" in="shadowBlurOuter1"></feColorMatrix>
        </filter>
        <radialGradient cx="50%" cy="-64.2579802%" fx="50%" fy="-64.2579802%" r="135.733341%" id="radialGradient-17">
            <stop stop-color="#FFEC99" offset="0%"></stop>
            <stop stop-color="#FFFFFF" offset="100%"></stop>
        </radialGradient>
        <polygon id="path-18" points="371.672659 306.452771 410.352158 261.092043 413.756856 283.772407"></polygon>
        <filter x="-35.6%" y="-26.5%" width="171.3%" height="166.1%" filterUnits="objectBoundingBox" id="filter-19">
            <feOffset dx="0" dy="3" in="SourceAlpha" result="shadowOffsetOuter1"></feOffset>
            <feGaussianBlur stdDeviation="4.5" in="shadowOffsetOuter1" result="shadowBlurOuter1"></feGaussianBlur>
            <feColorMatrix values="0 0 0 0 0.681866497   0 0 0 0 0.681866497   0 0 0 0 0.681866497  0 0 0 0.5 0" type="matrix" in="shadowBlurOuter1"></feColorMatrix>
        </filter>
        <polygon id="path-20" points="120.996007 311.079856 159.675506 265.719128 163.080203 288.399492"></polygon>
        <filter x="-35.6%" y="-26.5%" width="171.3%" height="166.1%" filterUnits="objectBoundingBox" id="filter-21">
            <feOffset dx="0" dy="3" in="SourceAlpha" result="shadowOffsetOuter1"></feOffset>
            <feGaussianBlur stdDeviation="4.5" in="shadowOffsetOuter1" result="shadowBlurOuter1"></feGaussianBlur>
            <feColorMatrix values="0 0 0 0 0.681866497   0 0 0 0 0.681866497   0 0 0 0 0.681866497  0 0 0 0.5 0" type="matrix" in="shadowBlurOuter1"></feColorMatrix>
        </filter>
        <polygon id="path-22" points="374.52877 267.76352 402.260322 203.145188 412.563528 229.340081"></polygon>
        <filter x="-39.4%" y="-18.6%" width="178.9%" height="146.4%" filterUnits="objectBoundingBox" id="filter-23">
            <feOffset dx="0" dy="3" in="SourceAlpha" result="shadowOffsetOuter1"></feOffset>
            <feGaussianBlur stdDeviation="4.5" in="shadowOffsetOuter1" result="shadowBlurOuter1"></feGaussianBlur>
            <feColorMatrix values="0 0 0 0 0.681866497   0 0 0 0 0.681866497   0 0 0 0 0.681866497  0 0 0 0.5 0" type="matrix" in="shadowBlurOuter1"></feColorMatrix>
        </filter>
        <polygon id="path-24" points="100.602521 270.21798 134.784811 204.129325 142.686717 247.537616"></polygon>
        <filter x="-35.6%" y="-18.2%" width="171.3%" height="145.4%" filterUnits="objectBoundingBox" id="filter-25">
            <feOffset dx="0" dy="3" in="SourceAlpha" result="shadowOffsetOuter1"></feOffset>
            <feGaussianBlur stdDeviation="4.5" in="shadowOffsetOuter1" result="shadowBlurOuter1"></feGaussianBlur>
            <feColorMatrix values="0 0 0 0 0.681866497   0 0 0 0 0.681866497   0 0 0 0 0.681866497  0 0 0 0.5 0" type="matrix" in="shadowBlurOuter1"></feColorMatrix>
        </filter>
        <radialGradient cx="50%" cy="50%" fx="50%" fy="50%" r="44.4291107%" gradientTransform="translate(0.500000,0.500000),scale(1.000000,0.984733),rotate(90.000000),translate(-0.500000,-0.500000)" id="radialGradient-26">
            <stop stop-color="#FFFFFF" offset="0%"></stop>
            <stop stop-color="#FFFFFF" stop-opacity="0" offset="100%"></stop>
        </radialGradient>
        <circle id="path-27" cx="243.5" cy="247.5" r="14.5"></circle>
        <filter x="-48.3%" y="-34.5%" width="196.6%" height="196.6%" filterUnits="objectBoundingBox" id="filter-28">
            <feOffset dx="0" dy="4" in="SourceAlpha" result="shadowOffsetOuter1"></feOffset>
            <feGaussianBlur stdDeviation="4" in="shadowOffsetOuter1" result="shadowBlurOuter1"></feGaussianBlur>
            <feColorMatrix values="0 0 0 0 0.716438138   0 0 0 0 0.716438138   0 0 0 0 0.716438138  0 0 0 0.5 0" type="matrix" in="shadowBlurOuter1"></feColorMatrix>
        </filter>
        <circle id="path-29" cx="271.5" cy="267.5" r="14.5"></circle>
        <filter x="-48.3%" y="-34.5%" width="196.6%" height="196.6%" filterUnits="objectBoundingBox" id="filter-30">
            <feOffset dx="0" dy="4" in="SourceAlpha" result="shadowOffsetOuter1"></feOffset>
            <feGaussianBlur stdDeviation="4" in="shadowOffsetOuter1" result="shadowBlurOuter1"></feGaussianBlur>
            <feColorMatrix values="0 0 0 0 0.716438138   0 0 0 0 0.716438138   0 0 0 0 0.716438138  0 0 0 0.5 0" type="matrix" in="shadowBlurOuter1"></feColorMatrix>
        </filter>
        <circle id="path-31" cx="260.5" cy="234.5" r="14.5"></circle>
        <filter x="-48.3%" y="-34.5%" width="196.6%" height="196.6%" filterUnits="objectBoundingBox" id="filter-32">
            <feOffset dx="0" dy="4" in="SourceAlpha" result="shadowOffsetOuter1"></feOffset>
            <feGaussianBlur stdDeviation="4" in="shadowOffsetOuter1" result="shadowBlurOuter1"></feGaussianBlur>
            <feColorMatrix values="0 0 0 0 0.716438138   0 0 0 0 0.716438138   0 0 0 0 0.716438138  0 0 0 0.5 0" type="matrix" in="shadowBlurOuter1"></feColorMatrix>
        </filter>
        <circle id="path-33" cx="279.5" cy="248.5" r="14.5"></circle>
        <filter x="-48.3%" y="-34.5%" width="196.6%" height="196.6%" filterUnits="objectBoundingBox" id="filter-34">
            <feOffset dx="0" dy="4" in="SourceAlpha" result="shadowOffsetOuter1"></feOffset>
            <feGaussianBlur stdDeviation="4" in="shadowOffsetOuter1" result="shadowBlurOuter1"></feGaussianBlur>
            <feColorMatrix values="0 0 0 0 0.716438138   0 0 0 0 0.716438138   0 0 0 0 0.716438138  0 0 0 0.5 0" type="matrix" in="shadowBlurOuter1"></feColorMatrix>
        </filter>
        <circle id="path-35" cx="250.5" cy="267.5" r="14.5"></circle>
        <filter x="-48.3%" y="-34.5%" width="196.6%" height="196.6%" filterUnits="objectBoundingBox" id="filter-36">
            <feOffset dx="0" dy="4" in="SourceAlpha" result="shadowOffsetOuter1"></feOffset>
            <feGaussianBlur stdDeviation="4" in="shadowOffsetOuter1" result="shadowBlurOuter1"></feGaussianBlur>
            <feColorMatrix values="0 0 0 0 0.716438138   0 0 0 0 0.716438138   0 0 0 0 0.716438138  0 0 0 0.5 0" type="matrix" in="shadowBlurOuter1"></feColorMatrix>
        </filter>
        <circle id="path-37" cx="260.5" cy="253.5" r="14.5"></circle>
        <filter x="-48.3%" y="-34.5%" width="196.6%" height="196.6%" filterUnits="objectBoundingBox" id="filter-38">
            <feOffset dx="0" dy="4" in="SourceAlpha" result="shadowOffsetOuter1"></feOffset>
            <feGaussianBlur stdDeviation="4" in="shadowOffsetOuter1" result="shadowBlurOuter1"></feGaussianBlur>
            <feColorMatrix values="0 0 0 0 0.716438138   0 0 0 0 0.716438138   0 0 0 0 0.716438138  0 0 0 0.5 0" type="matrix" in="shadowBlurOuter1"></feColorMatrix>
        </filter>
        <circle id="path-39" cx="103.5" cy="103.5" r="103.5"></circle>
        <filter x="-7.5%" y="-6.0%" width="115.0%" height="115.0%" filterUnits="objectBoundingBox" id="filter-40">
            <feMorphology radius="0.5" operator="dilate" in="SourceAlpha" result="shadowSpreadOuter1"></feMorphology>
            <feOffset dx="0" dy="3" in="shadowSpreadOuter1" result="shadowOffsetOuter1"></feOffset>
            <feGaussianBlur stdDeviation="4.5" in="shadowOffsetOuter1" result="shadowBlurOuter1"></feGaussianBlur>
            <feComposite in="shadowBlurOuter1" in2="SourceAlpha" operator="out" result="shadowBlurOuter1"></feComposite>
            <feColorMatrix values="0 0 0 0 0.512622236   0 0 0 0 0.512622236   0 0 0 0 0.512622236  0 0 0 0.5 0" type="matrix" in="shadowBlurOuter1"></feColorMatrix>
        </filter>
        <circle id="path-41" cx="325.5" cy="104.5" r="103.5"></circle>
        <filter x="-7.5%" y="-6.0%" width="115.0%" height="115.0%" filterUnits="objectBoundingBox" id="filter-42">
            <feMorphology radius="0.5" operator="dilate" in="SourceAlpha" result="shadowSpreadOuter1"></feMorphology>
            <feOffset dx="0" dy="3" in="shadowSpreadOuter1" result="shadowOffsetOuter1"></feOffset>
            <feGaussianBlur stdDeviation="4.5" in="shadowOffsetOuter1" result="shadowBlurOuter1"></feGaussianBlur>
            <feComposite in="shadowBlurOuter1" in2="SourceAlpha" operator="out" result="shadowBlurOuter1"></feComposite>
            <feColorMatrix values="0 0 0 0 0.512622236   0 0 0 0 0.512622236   0 0 0 0 0.512622236  0 0 0 0.5 0" type="matrix" in="shadowBlurOuter1"></feColorMatrix>
        </filter>
        <circle id="path-43" cx="103.5" cy="103.5" r="103.5"></circle>
        <filter x="-7.5%" y="-6.0%" width="115.0%" height="115.0%" filterUnits="objectBoundingBox" id="filter-44">
            <feMorphology radius="0.5" operator="dilate" in="SourceAlpha" result="shadowSpreadOuter1"></feMorphology>
            <feOffset dx="0" dy="3" in="shadowSpreadOuter1" result="shadowOffsetOuter1"></feOffset>
            <feGaussianBlur stdDeviation="4.5" in="shadowOffsetOuter1" result="shadowBlurOuter1"></feGaussianBlur>
            <feComposite in="shadowBlurOuter1" in2="SourceAlpha" operator="out" result="shadowBlurOuter1"></feComposite>
            <feColorMatrix values="0 0 0 0 0.512622236   0 0 0 0 0.512622236   0 0 0 0 0.512622236  0 0 0 0.5 0" type="matrix" in="shadowBlurOuter1"></feColorMatrix>
        </filter>
        <path d="M0,30.1508486 L7.66976588,9.63779245 L52.5488653,0 L62.4656745,15.0754243 L44.3483794,19.589348 C41.3467811,15.4838387 39.5715291,13.4994639 39.0226235,13.6362237 C38.4737179,13.7729835 38.4737179,16.1996623 39.0226235,20.91626 L17.3629357,26.3127708 L12.9157068,20.3660931 L0,30.1508486 Z" id="path-45"></path>
        <filter x="-11.2%" y="-16.6%" width="122.4%" height="146.4%" filterUnits="objectBoundingBox" id="filter-46">
            <feOffset dx="0" dy="2" in="SourceAlpha" result="shadowOffsetOuter1"></feOffset>
            <feGaussianBlur stdDeviation="2" in="shadowOffsetOuter1" result="shadowBlurOuter1"></feGaussianBlur>
            <feColorMatrix values="0 0 0 0 0   0 0 0 0 0   0 0 0 0 0  0 0 0 0.239130435 0" type="matrix" in="shadowBlurOuter1"></feColorMatrix>
        </filter>
        <path d="M0,30.1508486 L7.66976588,9.63779245 L52.5488653,0 L62.4656745,15.0754243 L44.3483794,19.589348 C41.3467811,15.4838387 39.5715291,13.4994639 39.0226235,13.6362237 C38.4737179,13.7729835 38.4737179,16.1996623 39.0226235,20.91626 L17.3629357,26.3127708 L12.9157068,20.3660931 L0,30.1508486 Z" id="path-47"></path>
        <filter x="-11.2%" y="-16.6%" width="122.4%" height="146.4%" filterUnits="objectBoundingBox" id="filter-48">
            <feOffset dx="0" dy="2" in="SourceAlpha" result="shadowOffsetOuter1"></feOffset>
            <feGaussianBlur stdDeviation="2" in="shadowOffsetOuter1" result="shadowBlurOuter1"></feGaussianBlur>
            <feColorMatrix values="0 0 0 0 0   0 0 0 0 0   0 0 0 0 0  0 0 0 0.239130435 0" type="matrix" in="shadowBlurOuter1"></feColorMatrix>
        </filter>
        <path d="M0,30.1508486 L7.66976588,9.63779245 L52.5488653,0 L62.4656745,15.0754243 L44.3483794,19.589348 C41.3467811,15.4838387 39.5715291,13.4994639 39.0226235,13.6362237 C38.4737179,13.7729835 38.4737179,16.1996623 39.0226235,20.91626 L17.3629357,26.3127708 L12.9157068,20.3660931 L0,30.1508486 Z" id="path-49"></path>
        <filter x="-11.2%" y="-16.6%" width="122.4%" height="146.4%" filterUnits="objectBoundingBox" id="filter-50">
            <feOffset dx="0" dy="2" in="SourceAlpha" result="shadowOffsetOuter1"></feOffset>
            <feGaussianBlur stdDeviation="2" in="shadowOffsetOuter1" result="shadowBlurOuter1"></feGaussianBlur>
            <feColorMatrix values="0 0 0 0 0   0 0 0 0 0   0 0 0 0 0  0 0 0 0.239130435 0" type="matrix" in="shadowBlurOuter1"></feColorMatrix>
        </filter>
        <path d="M0,30.1508486 L7.66976588,9.63779245 L52.5488653,0 L62.4656745,15.0754243 L44.3483794,19.589348 C41.3467811,15.4838387 39.5715291,13.4994639 39.0226235,13.6362237 C38.4737179,13.7729835 38.4737179,16.1996623 39.0226235,20.91626 L17.3629357,26.3127708 L12.9157068,20.3660931 L0,30.1508486 Z" id="path-51"></path>
        <filter x="-11.2%" y="-16.6%" width="122.4%" height="146.4%" filterUnits="objectBoundingBox" id="filter-52">
            <feOffset dx="0" dy="2" in="SourceAlpha" result="shadowOffsetOuter1"></feOffset>
            <feGaussianBlur stdDeviation="2" in="shadowOffsetOuter1" result="shadowBlurOuter1"></feGaussianBlur>
            <feColorMatrix values="0 0 0 0 0   0 0 0 0 0   0 0 0 0 0  0 0 0 0.239130435 0" type="matrix" in="shadowBlurOuter1"></feColorMatrix>
        </filter>
    </defs>
    <g id="Page-1" stroke="none" stroke-width="1" fill="none" fill-rule="evenodd">
        <g id="perch_match" transform="translate(-23.000000, 0.000000)">
            <g id="web-page" transform="translate(448.000000, 101.000000)">
                <g id="Rectangle-5">
                    <use fill="black" fill-opacity="1" filter="url(#filter-2)" xlink:href="#path-1"></use>
                    <use fill="#EBEBEB" fill-rule="evenodd" xlink:href="#path-1"></use>
                </g>
                <path d="M8,0 L750,0 C754.418278,-8.11624501e-16 758,3.581722 758,8 L758,46 L0,46 L0,8 C-5.41083001e-16,3.581722 3.581722,8.11624501e-16 8,0 Z" id="Rectangle-5" fill="#0277BD"></path>
                <path d="M667,0 L750,0 C754.418278,-8.11624501e-16 758,3.581722 758,8 L758,46 L667,46 L667,0 Z" id="Rectangle-5" fill="#29B6F6"></path>
                <rect id="Rectangle-6" fill="#FFFFFF" x="29" y="87" width="130" height="201" rx="4"></rect>
                <rect id="Rectangle-6" fill="#FFFFFF" opacity="0.431584821" x="192" y="133" width="521" height="107" rx="4"></rect>
                <rect id="Rectangle-6" fill="#FFFFFF" x="192" y="87" width="521" height="29" rx="4"></rect>
                <g id="Rectangle-6">
                    <use fill="black" fill-opacity="1" filter="url(#filter-4)" xlink:href="#path-3"></use>
                    <use fill="#FFFFFF" fill-rule="evenodd" xlink:href="#path-3"></use>
                </g>
                <rect id="Rectangle-6" fill="#FFFFFF" opacity="0.431584821" x="192" y="374" width="521" height="107" rx="4"></rect>
                <path d="M196,495 L709,495 C711.209139,495 713,496.790861 713,499 L713,581 L192,581 L192,499 C192,496.790861 193.790861,495 196,495 Z" id="Rectangle-6" fill="#FFFFFF" opacity="0.392354911"></path>
                <rect id="Rectangle-6" fill="#FFFFFF" x="29" y="299" width="130" height="29" rx="4"></rect>
                <rect id="Rectangle-6" fill="#FFFFFF" x="29" y="339" width="130" height="29" rx="4"></rect>
                <rect id="Rectangle-7" fill="#F0F0F0" x="41" y="116" width="16" height="16" rx="4"></rect>
                <rect id="Rectangle-7" fill="#29B6F6" x="41" y="136" width="16" height="16" rx="4"></rect>
                <rect id="Rectangle-7" fill="#F0F0F0" x="41" y="156" width="16" height="16" rx="4"></rect>
                <rect id="Rectangle-7" fill="#F0F0F0" x="41" y="176" width="16" height="16" rx="4"></rect>
                <rect id="Rectangle-7" fill="#29B6F6" x="41" y="196" width="16" height="16" rx="4"></rect>
                <rect id="Rectangle-7" fill="#F0F0F0" x="41" y="216" width="16" height="16" rx="4"></rect>
                <rect id="Rectangle-7" fill="#F0F0F0" x="41" y="236" width="16" height="16" rx="4"></rect>
                <rect id="Rectangle-7" fill="#F0F0F0" x="41" y="256" width="16" height="16" rx="4"></rect>
            </g>
            <g id="project-lines" transform="translate(665.000000, 412.000000)" stroke="#E2E2E2" stroke-linecap="square" stroke-width="4">
                <path d="M0.5,1.5 L441,1.5" id="Line-6"></path>
                <path d="M0.5,14.5 L210,14.5" id="Line-6"></path>
                <path d="M0.5,27.5 L38,27.5" id="Line-6"></path>
                <path d="M222.5,14.5 L432,14.5" id="Line-6"></path>
                <path d="M51,27.5 L432.5,27.5" id="Line-6"></path>
            </g>
            <g id="filter-to-project-connector" transform="translate(608.000000, 252.000000)" stroke-linecap="square" stroke-width="3">
                <path d="M0.5,3.5 L13.5,3.5" id="Line-7" stroke="#D7D7D7"></path>
                <path d="M14.5,122.5 L30.5,122.5" id="Line-7" stroke="#D7D7D7"></path>
                <path d="M14.5,122.5 L14.5,3.5" id="Line-7" stroke="#D7D7D7"></path>
                <path d="M0.5,1.5 L15.5,1.5" id="Line-7" stroke="#F5F5F5"></path>
                <path d="M16.5,120.5 L30.5,120.5" id="Line-7" stroke="#F5F5F5"></path>
                <path d="M16.5,120.5 L16.5,1.5" id="Line-7" stroke="#F5F5F5"></path>
            </g>
            <g id="web-page-extras" transform="translate(210.000000, 252.000000)" stroke-dasharray="17,18" stroke-linecap="square">
                <g id="Line-5">
                    <use fill="black" fill-opacity="1" filter="url(#filter-6)" xlink:href="#path-5"></use>
                    <use stroke="#0277BD" stroke-width="4" xlink:href="#path-5"></use>
                </g>
                <g id="Line-5">
                    <use fill="black" fill-opacity="1" filter="url(#filter-8)" xlink:href="#path-7"></use>
                    <use stroke="#0277BD" stroke-width="4" xlink:href="#path-7"></use>
                </g>
                <g id="Line-5">
                    <use fill="black" fill-opacity="1" filter="url(#filter-10)" xlink:href="#path-9"></use>
                    <use stroke="#0277BD" stroke-width="4" xlink:href="#path-9"></use>
                </g>
                <g id="Line-5">
                    <use fill="black" fill-opacity="1" filter="url(#filter-12)" xlink:href="#path-11"></use>
                    <use stroke="#29B6F6" stroke-width="4" xlink:href="#path-11"></use>
                </g>
                <g id="Line-5">
                    <use fill="black" fill-opacity="1" filter="url(#filter-14)" xlink:href="#path-13"></use>
                    <use stroke="#29B6F6" stroke-width="4" xlink:href="#path-13"></use>
                </g>
            </g>
            <g id="Student" transform="translate(109.000000, 296.000000)">
                <g id="Oval-7">
                    <use fill="black" fill-opacity="1" filter="url(#filter-16)" xlink:href="#path-15"></use>
                    <use stroke="#FFFFFF" stroke-width="1" fill="#0277BD" fill-rule="evenodd" xlink:href="#path-15"></use>
                </g>
                <circle id="Oval-7" stroke="#FFFFFF" stroke-width="7" fill="url(#radialGradient-17)" cx="101.5" cy="103.5" r="87.5"></circle>
                <circle id="Oval-8" fill="#A1E8FF" cx="101.5" cy="84.5" r="31.5"></circle>
                <path d="M101.5,116 C118.89697,116 133,101.89697 133,84.5 C133,74.1301746 122.263481,62.6585835 112.126862,53.6222372 C108.044033,49.9825767 105.34795,43.8324929 101.5,42.7926302 C98.8740075,42.082987 103.62704,49.8459005 94.5563767,53.6222372 C78.1720463,60.4434306 70,67.1030304 70,84.5 C70,101.89697 84.1030304,116 101.5,116 Z" id="Oval-8" fill="#A1E8FF"></path>
                <path d="M88.6779747,104.523393 C88.6779747,116.455147 88.6779747,125.006413 88.6779747,130.177191 C88.6779747,137.933358 50,134.44041 50,146.988463 C50,155.353832 50,164.697717 50,175.02012 L96.9788485,193.450488 L150.596879,175.02012 C150.596879,164.170475 150.596879,154.826589 150.596879,146.988463 C150.596879,135.231273 114.069999,136.827178 114.069999,130.177191 C114.069999,125.743866 114.069999,113.018136 114.069999,92 L96.9788485,104.523393 L88.6779747,104.523393 Z" id="Path-8" fill="#A1E8FF"></path>
                <circle id="Oval-7" stroke="#CACACA" stroke-width="7" fill-opacity="0" fill="#E9E9E9" cx="101.5" cy="103.5" r="87.5"></circle>
            </g>
            <g id="done" transform="translate(649.000000, 1051.000000)">
                <circle id="Oval-8" fill="#A2CAD8" cx="41.5" cy="68.5" r="31.5"></circle>
                <path d="M32.1860397,76.6751 C32.1860397,92.5340517 32.1860397,103.899867 32.1860397,110.772547 C32.1860397,121.081566 3.55271368e-15,122.107071 0,141.348337 C0,154.175848 0,168.503824 0,184.332263 C13.1389646,189.710656 27.0909841,188.183921 41.8560584,180.707479 C56.6211327,173.231038 70.5731521,162.020427 83.7121167,148.031069 C83.7121167,137.158325 83.7121167,127.794546 83.7121167,119.939733 C83.7121167,108.157512 53.3161196,115.570121 53.3161196,107.623143 C53.3161196,102.325157 53.3161196,87.117443 53.3161196,62 L39.0936469,76.7701697 L32.1860397,76.6751 Z" id="Path-8" fill="#A2CAD8"></path>
                <circle id="Oval-8" fill="#A2CAD8" cx="177.5" cy="31.5" r="31.5"></circle>
                <path d="M168.18604,39.6751 C168.18604,55.5340517 168.18604,66.8998672 168.18604,73.7725465 C168.18604,84.0815655 136,78.0592113 136,97.3004779 C136,110.127989 136,109.449852 136,125.278292 C149.138965,130.656685 162.619746,132.762585 177.856058,132.762585 C193.092371,132.762585 206.573152,125.020427 219.712117,111.031069 C219.712117,100.158325 219.712117,90.7945465 219.712117,82.9397328 C219.712117,71.1575123 189.31612,78.5701215 189.31612,70.623143 C189.31612,65.3251573 189.31612,50.117443 189.31612,25 L175.093647,39.7701697 L168.18604,39.6751 Z" id="Path-8" fill="#A2CAD8"></path>
                <circle id="Oval-8" fill="#A2CAD8" transform="translate(256.500000, 31.500000) scale(-1, 1) translate(-256.500000, -31.500000) " cx="256.5" cy="31.5" r="31.5"></circle>
                <path d="M247.18604,39.6751 C247.18604,55.5340517 247.18604,66.8998672 247.18604,73.7725465 C247.18604,84.0815655 215,78.0592113 215,97.3004779 C215,110.127989 215,109.449852 215,125.278292 C228.138965,130.656685 241.619746,132.762585 256.856058,132.762585 C272.092371,132.762585 285.573152,125.020427 298.712117,111.031069 C298.712117,100.158325 298.712117,90.7945465 298.712117,82.9397328 C298.712117,71.1575123 268.31612,78.5701215 268.31612,70.623143 C268.31612,65.3251573 268.31612,50.117443 268.31612,25 L254.093647,39.7701697 L247.18604,39.6751 Z" id="Path-8" fill="#A2CAD8" transform="translate(256.856058, 78.881292) scale(-1, 1) translate(-256.856058, -78.881292) "></path>
                <circle id="Oval-8" fill="#A2CAD8" transform="translate(399.500000, 68.500000) scale(-1, 1) translate(-399.500000, -68.500000) " cx="399.5" cy="68.5" r="31.5"></circle>
                <path d="M390.18604,76.6751 C390.18604,92.5340517 390.18604,103.899867 390.18604,110.772547 C390.18604,121.081566 358,115.059211 358,134.300478 C358,147.127989 358,146.449852 358,162.278292 C371.138965,167.656685 384.619746,169.762585 399.856058,169.762585 C415.092371,169.762585 428.573152,162.020427 441.712117,148.031069 C441.712117,137.158325 441.712117,127.794546 441.712117,119.939733 C441.712117,108.157512 411.31612,115.570121 411.31612,107.623143 C411.31612,102.325157 411.31612,87.117443 411.31612,62 L397.093647,76.7701697 L390.18604,76.6751 Z" id="Path-8" fill="#A2CAD8" transform="translate(399.856058, 115.881292) scale(-1, 1) translate(-399.856058, -115.881292) "></path>
                <path d="M317.18604,51.6751 C317.18604,67.5340517 317.18604,78.8998672 317.18604,85.7725465 C317.18604,96.0815655 285,97.1070706 285,116.348337 C285,129.175848 285,143.503824 285,159.332263 C298.138965,164.710656 312.090984,163.183921 326.856058,155.707479 C341.621133,148.231038 355.573152,137.020427 368.712117,123.031069 C368.712117,112.158325 368.712117,102.794546 368.712117,94.9397328 C368.712117,83.1575123 338.31612,90.5701215 338.31612,82.623143 C338.31612,77.3251573 338.31612,62.117443 338.31612,37 L324.093647,51.7701697 L317.18604,51.6751 Z" id="Path-8" fill="#0277BD" transform="translate(326.856058, 99.766513) scale(-1, 1) translate(-326.856058, -99.766513) "></path>
                <circle id="Oval-8" fill="#0277BD" cx="326.5" cy="43.5" r="31.5"></circle>
                <circle id="Oval-8" fill="#0277BD" cx="348" cy="26" r="15"></circle>
                <circle id="Oval-8" fill="#A1E8FF" cx="104.5" cy="43.5" r="31.5"></circle>
                <path d="M104.5,75 C121.89697,75 136,60.8969696 136,43.5 C136,26.1030304 125.168933,13.8079504 104.5,12 C101.078503,11.7007153 97.3833428,7.14963722 92.5956802,7.14963722 C90.1948939,7.14963722 94.5844902,9.72366897 90.528526,13.8079504 C82.9023538,21.4873656 73,33.7109826 73,43.5 C73,60.8969696 87.1030304,75 104.5,75 Z" id="Oval-8" fill="#A1E8FF"></path>
                <path d="M95.1860397,51.6751 C95.1860397,67.5340517 95.1860397,78.8998672 95.1860397,85.7725465 C95.1860397,96.0815655 63,97.1070706 63,116.348337 C63,129.175848 63,143.503824 63,159.332263 C76.1389646,164.710656 90.0909841,163.183921 104.856058,155.707479 C119.621133,148.231038 133.573152,137.020427 146.712117,123.031069 C146.712117,112.158325 146.712117,102.794546 146.712117,94.9397328 C146.712117,83.1575123 116.31612,90.5701215 116.31612,82.623143 C116.31612,77.3251573 116.31612,62.117443 116.31612,37 L102.093647,51.7701697 L95.1860397,51.6751 Z" id="Path-8" fill="#A1E8FF"></path>
            </g>
            <g id="atom" transform="translate(612.000000, 665.000000)">
                <g id="Path-4" transform="translate(392.714757, 283.772407) rotate(69.000000) translate(-392.714757, -283.772407) ">
                    <use fill="black" fill-opacity="1" filter="url(#filter-19)" xlink:href="#path-18"></use>
                    <use fill="#29B6F6" fill-rule="evenodd" xlink:href="#path-18"></use>
                </g>
                <g id="Path-4" transform="translate(142.038105, 288.399492) scale(-1, 1) rotate(61.000000) translate(-142.038105, -288.399492) ">
                    <use fill="black" fill-opacity="1" filter="url(#filter-21)" xlink:href="#path-20"></use>
                    <use fill="#0277BD" fill-rule="evenodd" xlink:href="#path-20"></use>
                </g>
                <g id="Path-4" transform="translate(393.546149, 235.454354) rotate(33.000000) translate(-393.546149, -235.454354) ">
                    <use fill="black" fill-opacity="1" filter="url(#filter-23)" xlink:href="#path-22"></use>
                    <use fill="#9BE0FF" fill-rule="evenodd" xlink:href="#path-22"></use>
                </g>
                <g id="Path-4" transform="translate(121.644619, 237.173653) scale(-1, 1) rotate(33.000000) translate(-121.644619, -237.173653) ">
                    <use fill="black" fill-opacity="1" filter="url(#filter-25)" xlink:href="#path-24"></use>
                    <use fill="#29B6F6" fill-rule="evenodd" xlink:href="#path-24"></use>
                </g>
                <ellipse id="Oval-10" fill="url(#radialGradient-26)" cx="258" cy="262" rx="258" ry="262"></ellipse>
                <path d="M277,173 C267,174.946059 262,202.099241 262,254.459545 C262,306.819848 267,333 277,333" id="Line-3" stroke-opacity="0.22877038" stroke="#FFCF00" stroke-width="7" stroke-linecap="square" transform="translate(269.500000, 253.000000) scale(-1, 1) translate(-269.500000, -253.000000) "></path>
                <path d="M263,180 C253,181.946059 248,209.099241 248,261.459545 C248,313.819848 253,340 263,340" id="Line-3" stroke-opacity="0.22877038" stroke="#FFCF00" stroke-width="7" stroke-linecap="square" transform="translate(255.500000, 260.000000) scale(-1, -1) rotate(120.000000) translate(-255.500000, -260.000000) "></path>
                <path d="M261,168 C251,169.946059 246,197.099241 246,249.459545 C246,301.819848 251,328 261,328" id="Line-3" stroke-opacity="0.22877038" stroke="#FFCF00" stroke-width="7" stroke-linecap="square" transform="translate(253.500000, 248.000000) rotate(60.000000) translate(-253.500000, -248.000000) "></path>
                <g id="Oval-6">
                    <use fill="black" fill-opacity="1" filter="url(#filter-28)" xlink:href="#path-27"></use>
                    <use fill="#F8DB5D" fill-rule="evenodd" xlink:href="#path-27"></use>
                </g>
                <g id="Oval-6">
                    <use fill="black" fill-opacity="1" filter="url(#filter-30)" xlink:href="#path-29"></use>
                    <use fill="#F8DB5D" fill-rule="evenodd" xlink:href="#path-29"></use>
                </g>
                <g id="Oval-6">
                    <use fill="black" fill-opacity="1" filter="url(#filter-32)" xlink:href="#path-31"></use>
                    <use fill="#F8DB5D" fill-rule="evenodd" xlink:href="#path-31"></use>
                </g>
                <g id="Oval-6">
                    <use fill="black" fill-opacity="1" filter="url(#filter-34)" xlink:href="#path-33"></use>
                    <use fill="#F8DB5D" fill-rule="evenodd" xlink:href="#path-33"></use>
                </g>
                <g id="Oval-6">
                    <use fill="black" fill-opacity="1" filter="url(#filter-36)" xlink:href="#path-35"></use>
                    <use fill="#F8DB5D" fill-rule="evenodd" xlink:href="#path-35"></use>
                </g>
                <g id="Oval-6">
                    <use fill="black" fill-opacity="1" filter="url(#filter-38)" xlink:href="#path-37"></use>
                    <use fill="#F8DB5D" fill-rule="evenodd" xlink:href="#path-37"></use>
                </g>
                <path d="M269,183 C259,184.946059 254,212.099241 254,264.459545 C254,316.819848 259,343 269,343" id="Line-3" stroke-opacity="0.22877038" stroke="#FFCF00" stroke-width="7" stroke-linecap="square" transform="translate(261.500000, 263.000000) scale(-1, -1) rotate(60.000000) translate(-261.500000, -263.000000) "></path>
                <path d="M261,173 C251,174.946059 246,202.099241 246,254.459545 C246,306.819848 251,333 261,333" id="Line-3" stroke-opacity="0.22877038" stroke="#FFCF00" stroke-width="7" stroke-linecap="square"></path>
                <path d="M270,166 C260,167.946059 255,195.099241 255,247.459545 C255,299.819848 260,326 270,326" id="Line-3" stroke-opacity="0.22877038" stroke="#FFCF00" stroke-width="7" stroke-linecap="square" transform="translate(262.500000, 246.000000) rotate(120.000000) translate(-262.500000, -246.000000) "></path>
            </g>
            <path d="M874.777012,1403 C1026.65532,1403 1137.9878,1331.94509 1137.9878,1265.94706 C1137.9878,1199.94903 1026.65532,1164 874.777012,1164 C722.898706,1164 628,1199.94903 628,1265.94706 C628,1331.94509 722.898706,1403 874.777012,1403 Z" id="Oval-9" fill="#FFFFFF"></path>
            <path d="M1040,1249.99871 L1048.15544,1243.5 C1051.81537,1247.57523 1054.9268,1251.93559 1057.48974,1256.58108 C1060.05267,1261.22658 1061.71556,1265.80385 1062.4784,1270.31291 C1066.25816,1255.22693 1071.48467,1241.73583 1078.15792,1229.83961 C1084.83117,1217.94338 1092.99243,1207.99685 1102.64171,1200 L1118,1204.77589 C1104.10286,1211.54787 1093.03507,1222.06867 1084.79662,1236.33831 C1076.55818,1250.60795 1071.09888,1267.49518 1068.41872,1287 L1057.48974,1287 C1055.23178,1277.72642 1052.41437,1269.73465 1049.03752,1263.0247 C1045.66066,1256.31476 1042.64816,1251.97276 1040,1249.99871 Z" id="Path-12" fill="#29B6F6"></path>
            <g id="Lab-Members" opacity="0.446037946" transform="translate(1325.000000, 311.000000)">
                <g id="Oval-7">
                    <use fill="black" fill-opacity="1" filter="url(#filter-40)" xlink:href="#path-39"></use>
                    <use stroke="#FFFFFF" stroke-width="1" fill="#29B6F6" fill-rule="evenodd" xlink:href="#path-39"></use>
                </g>
                <circle id="Oval-7" stroke="#FFFFFF" stroke-width="7" fill="#FBFBFB" cx="102.5" cy="104.5" r="87.5"></circle>
                <circle id="Oval-8" fill="#A2CAD8" cx="103.5" cy="85.5" r="31.5"></circle>
                <path d="M90.6779747,105.523393 C90.6779747,117.455147 90.6779747,126.006413 90.6779747,131.177191 C90.6779747,138.933358 52,135.44041 52,147.988463 C52,156.353832 52,165.697717 52,176.02012 L98.9788485,194.450488 L152.596879,176.02012 C152.596879,165.170475 152.596879,155.826589 152.596879,147.988463 C152.596879,136.231273 116.069999,137.827178 116.069999,131.177191 C116.069999,126.743866 116.069999,114.018136 116.069999,93 L98.9788485,105.523393 L90.6779747,105.523393 Z" id="Path-8" fill="#A2CAD8"></path>
                <circle id="Oval-7" stroke="#D6D6D6" stroke-width="7" fill-opacity="0" fill="#E9E9E9" cx="102.5" cy="104.5" r="87.5"></circle>
                <path d="M70.5,165.5 L89.5,165.5" id="Line-4" stroke="#0277BD" stroke-linecap="square"></path>
                <path d="M70.5,166.5 L89.5,166.5" id="Line-4" stroke-opacity="0.510671422" stroke="#0277BD" stroke-linecap="square"></path>
                <path d="M72,164.564429 L72,156.565837 L73.4220789,155 L74.7495664,156.565837 L74.7495664,164.564429 L73.4220789,167.093282 L72,164.564429 Z M75,164.564429 L75,156.565837 L76.4220789,155 L77.7495664,156.565837 L77.7495664,164.564429 L76.4220789,167.093282 L75,164.564429 Z" id="Path-9" fill="#0277BD"></path>
                <polygon id="Path" fill="#46ACE8" points="75 164.564429 75 156.565837 76.4220789 155 77.7495664 156.565837 77.7495664 164.564429 76.4220789 167.093282"></polygon>
                <g id="Oval-7">
                    <use fill="black" fill-opacity="1" filter="url(#filter-42)" xlink:href="#path-41"></use>
                    <use stroke="#FFFFFF" stroke-width="1" fill="#29B6F6" fill-rule="evenodd" xlink:href="#path-41"></use>
                </g>
                <circle id="Oval-7" stroke="#FFFFFF" stroke-width="7" fill="#FBFBFB" cx="324.5" cy="105.5" r="87.5"></circle>
                <circle id="Oval-8" fill="#A2CAD8" cx="325.5" cy="86.5" r="31.5"></circle>
                <path d="M312.677975,106.523393 C312.677975,118.455147 312.677975,127.006413 312.677975,132.177191 C312.677975,139.933358 274,136.44041 274,148.988463 C274,157.353832 274,166.697717 274,177.02012 L320.978849,195.450488 L374.596879,177.02012 C374.596879,166.170475 374.596879,156.826589 374.596879,148.988463 C374.596879,137.231273 338.069999,138.827178 338.069999,132.177191 C338.069999,127.743866 338.069999,115.018136 338.069999,94 L320.978849,106.523393 L312.677975,106.523393 Z" id="Path-8" fill="#A2CAD8"></path>
                <circle id="Oval-7" stroke="#D6D6D6" stroke-width="7" fill-opacity="0" fill="#E9E9E9" cx="324.5" cy="105.5" r="87.5"></circle>
                <path d="M292.5,166.5 L311.5,166.5" id="Line-4" stroke="#0277BD" stroke-linecap="square"></path>
                <path d="M292.5,167.5 L311.5,167.5" id="Line-4" stroke-opacity="0.510671422" stroke="#0277BD" stroke-linecap="square"></path>
                <path d="M294,165.564429 L294,157.565837 L295.422079,156 L296.749566,157.565837 L296.749566,165.564429 L295.422079,168.093282 L294,165.564429 Z M297,165.564429 L297,157.565837 L298.422079,156 L299.749566,157.565837 L299.749566,165.564429 L298.422079,168.093282 L297,165.564429 Z" id="Path-9" fill="#0277BD"></path>
                <polygon id="Path" fill="#46ACE8" points="297 165.564429 297 157.565837 298.422079 156 299.749566 157.565837 299.749566 165.564429 298.422079 168.093282"></polygon>
            </g>
            <g id="perch_page-text" transform="translate(0.000000, 360.000000)">
                <text id="Awesome-Student" font-family="AvenirNext-Regular, Avenir Next" font-size="36" font-weight="normal" fill="#003656">
                    <tspan x="64.47" y="220">Awesome Student</tspan>
                </text>
                <text id="Awesome-Lab" font-family="AvenirNext-Regular, Avenir Next" font-size="36" font-weight="normal" fill="#003656">
                    <tspan x="1424.346" y="221">Awesome Lab</tspan>
                </text>
                <text id="One-Awesome-Team" font-family="AvenirNext-DemiBold, Avenir Next" font-size="40" font-weight="500" fill="#005181">
                    <tspan x="639.72" y="912">One Awesome Team</tspan>
                </text>
                <text id="Super-Cool-Project" font-family="AvenirNext-Regular, Avenir Next" font-size="32" font-weight="normal" fill="#29B6F6">
                    <tspan x="654.696" y="32">Super Cool Project</tspan>
                </text>
            </g>
            <g id="Lab-Admin" transform="translate(1436.000000, 254.000000)">
                <g id="Oval-7">
                    <use fill="black" fill-opacity="1" filter="url(#filter-44)" xlink:href="#path-43"></use>
                    <use stroke="#FFFFFF" stroke-width="1" fill="#29B6F6" fill-rule="evenodd" xlink:href="#path-43"></use>
                </g>
                <circle id="Oval-7" stroke="#FFFFFF" stroke-width="7" fill="#FBFBFB" cx="102.5" cy="104.5" r="87.5"></circle>
                <circle id="Oval-7" stroke="#FFFFFF" stroke-width="7" fill="url(#radialGradient-17)" cx="102.5" cy="104.5" r="87.5"></circle>
                <circle id="Oval-7" stroke="#FFFFFF" stroke-width="7" fill="url(#radialGradient-17)" cx="102.5" cy="104.5" r="87.5"></circle>
                <circle id="Oval-8" fill="#0277BD" cx="104" cy="60" r="16"></circle>
                <circle id="Oval-8" fill="#0277BD" cx="103.5" cy="85.5" r="31.5"></circle>
                <path d="M90.6779747,105.523393 C90.6779747,117.455147 90.6779747,126.006413 90.6779747,131.177191 C90.6779747,138.933358 52,135.44041 52,147.988463 C52,156.353832 52,165.697717 52,176.02012 L98.9788485,194.450488 L152.596879,176.02012 C152.596879,165.170475 152.596879,155.826589 152.596879,147.988463 C152.596879,136.231273 116.069999,137.827178 116.069999,131.177191 C116.069999,126.743866 116.069999,114.018136 116.069999,93 L98.9788485,105.523393 L90.6779747,105.523393 Z" id="Path-8" fill="#0277BD"></path>
                <circle id="Oval-7" stroke="#D6D6D6" stroke-width="7" fill-opacity="0" fill="#E9E9E9" cx="102.5" cy="104.5" r="87.5"></circle>
                <path d="M70.5,165.5 L89.5,165.5" id="Line-4" stroke="#0277BD" stroke-linecap="square"></path>
                <path d="M70.5,166.5 L89.5,166.5" id="Line-4" stroke-opacity="0.510671422" stroke="#0277BD" stroke-linecap="square"></path>
                <path d="M72,164.564429 L72,156.565837 L73.4220789,155 L74.7495664,156.565837 L74.7495664,164.564429 L73.4220789,167.093282 L72,164.564429 Z M75,164.564429 L75,156.565837 L76.4220789,155 L77.7495664,156.565837 L77.7495664,164.564429 L76.4220789,167.093282 L75,164.564429 Z" id="Path-9" fill="#0277BD"></path>
                <polygon id="Path" fill="#46ACE8" points="75 164.564429 75 156.565837 76.4220789 155 77.7495664 156.565837 77.7495664 164.564429 76.4220789 167.093282"></polygon>
            </g>
            <g id="glasses" transform="translate(661.000000, 1070.000000)">
                <g transform="translate(63.000000, 2.000000)">
                    <g id="Path-10">
                        <use fill="black" fill-opacity="1" filter="url(#filter-46)" xlink:href="#path-45"></use>
                        <use fill="#E9E9E9" fill-rule="evenodd" xlink:href="#path-45"></use>
                    </g>
                    <polygon id="Path-11" fill="#FFFFFF" points="15.8338157 10.8399879 32.8682852 6.75244024 34.3374459 10.8399879"></polygon>
                    <polygon id="Path-11" fill="#FFFFFF" points="36 7.08754763 53.0344696 3 54.5036302 7.08754763"></polygon>
                </g>
                <g transform="translate(0.000000, 25.000000)">
                    <g id="Path-10">
                        <use fill="black" fill-opacity="1" filter="url(#filter-48)" xlink:href="#path-47"></use>
                        <use fill="#E9E9E9" fill-rule="evenodd" xlink:href="#path-47"></use>
                    </g>
                    <polygon id="Path-11" fill="#FFFFFF" points="15.8338157 10.8399879 32.8682852 6.75244024 34.3374459 10.8399879"></polygon>
                    <polygon id="Path-11" fill="#FFFFFF" points="36 7.08754763 53.0344696 3 54.5036302 7.08754763"></polygon>
                </g>
                <g transform="translate(312.500000, 15.500000) scale(-1, 1) translate(-312.500000, -15.500000) translate(281.000000, 0.000000)">
                    <g id="Path-10">
                        <use fill="black" fill-opacity="1" filter="url(#filter-50)" xlink:href="#path-49"></use>
                        <use fill="#E9E9E9" fill-rule="evenodd" xlink:href="#path-49"></use>
                    </g>
                    <polygon id="Path-11" fill="#FFFFFF" points="15.8338157 10.8399879 32.8682852 6.75244024 34.3374459 10.8399879"></polygon>
                    <polygon id="Path-11" fill="#FFFFFF" points="36 7.08754763 53.0344696 3 54.5036302 7.08754763"></polygon>
                </g>
                <g transform="translate(382.500000, 40.500000) scale(-1, 1) translate(-382.500000, -40.500000) translate(351.000000, 25.000000)">
                    <g id="Path-10">
                        <use fill="black" fill-opacity="1" filter="url(#filter-52)" xlink:href="#path-51"></use>
                        <use fill="#E9E9E9" fill-rule="evenodd" xlink:href="#path-51"></use>
                    </g>
                    <polygon id="Path-11" fill="#FFFFFF" points="15.8338157 10.8399879 32.8682852 6.75244024 34.3374459 10.8399879"></polygon>
                    <polygon id="Path-11" fill="#FFFFFF" points="36 7.08754763 53.0344696 3 54.5036302 7.08754763"></polygon>
                </g>
            </g>
        </g>
    </g>
</svg>