<?xml version="1.0" encoding="UTF-8"?>
<svg width="1935px" height="704px" viewBox="0 0 1935 704" version="1.1" xmlns="http://www.w3.org/2000/svg" xmlns:xlink="http://www.w3.org/1999/xlink">
    <!-- Generator: Sketch 50 (54983) - http://www.bohemiancoding.com/sketch -->
    <title>search</title>
    <desc>Created with Sketch.</desc>
    <defs>
        <radialGradient cx="50%" cy="50%" fx="50%" fy="50%" r="50.2387463%" id="radialGradient-1">
            <stop stop-color="#000000" offset="0%"></stop>
            <stop stop-color="#FFFFFF" stop-opacity="0" offset="100%"></stop>
        </radialGradient>
        <filter x="-16.7%" y="-8.3%" width="133.3%" height="121.5%" filterUnits="objectBoundingBox" id="filter-2">
            <feOffset dx="0" dy="4" in="SourceAlpha" result="shadowOffsetOuter1"></feOffset>
            <feGaussianBlur stdDeviation="5.5" in="shadowOffsetOuter1" result="shadowBlurOuter1"></feGaussianBlur>
            <feColorMatrix values="0 0 0 0 0.575042517   0 0 0 0 0.575042517   0 0 0 0 0.575042517  0 0 0 0.5 0" type="matrix" in="shadowBlurOuter1" result="shadowMatrixOuter1"></feColorMatrix>
            <feMerge>
                <feMergeNode in="shadowMatrixOuter1"></feMergeNode>
                <feMergeNode in="SourceGraphic"></feMergeNode>
            </feMerge>
        </filter>
        <path d="M169.92355,207.018437 L236.311042,351.562501 C237.452041,354.046772 236.386302,356.986861 233.918465,358.162982 L215.310451,367.031187 C215.271673,367.049667 215.232659,367.067648 215.193418,367.085123 C212.670827,368.208507 209.715179,367.074226 208.591794,364.551634 L143.636779,218.693313 C133.540661,221.686349 122.847692,223.29328 111.77896,223.29328 C50.0451449,223.29328 0,173.307376 0,111.64664 C0,49.9859033 50.0451449,0 111.77896,0 C173.512774,0 223.557919,49.9859033 223.557919,111.64664 C223.557919,152.034891 202.086803,187.414231 169.92355,207.018437 Z M112.337854,199.847485 C160.798899,199.847485 200.084338,160.608551 200.084338,112.204873 C200.084338,63.8011948 160.798899,24.5622608 112.337854,24.5622608 C63.8768098,24.5622608 24.5913711,63.8011948 24.5913711,112.204873 C24.5913711,160.608551 63.8768098,199.847485 112.337854,199.847485 Z" id="path-3"></path>
        <filter x="-12.7%" y="-6.8%" width="125.3%" height="116.3%" filterUnits="objectBoundingBox" id="filter-4">
            <feMorphology radius="8" operator="dilate" in="SourceAlpha" result="shadowSpreadOuter1"></feMorphology>
            <feOffset dx="0" dy="5" in="shadowSpreadOuter1" result="shadowOffsetOuter1"></feOffset>
            <feGaussianBlur stdDeviation="6.5" in="shadowOffsetOuter1" result="shadowBlurOuter1"></feGaussianBlur>
            <feComposite in="shadowBlurOuter1" in2="SourceAlpha" operator="out" result="shadowBlurOuter1"></feComposite>
            <feColorMatrix values="0 0 0 0 0   0 0 0 0 0   0 0 0 0 0  0 0 0 0.406702899 0" type="matrix" in="shadowBlurOuter1"></feColorMatrix>
        </filter>
        <text id="text-5" font-family="AvenirNext-DemiBold, Avenir Next" font-size="160" font-weight="500" fill="#0277BD">
            <tspan x="721.446317" y="278.432273">?</tspan>
        </text>
        <filter x="-4.1%" y="-5.0%" width="108.3%" height="114.6%" filterUnits="objectBoundingBox" id="filter-6">
            <feOffset dx="0" dy="5" in="SourceAlpha" result="shadowOffsetOuter1"></feOffset>
            <feGaussianBlur stdDeviation="4.5" in="shadowOffsetOuter1" result="shadowBlurOuter1"></feGaussianBlur>
            <feColorMatrix values="0 0 0 0 0   0 0 0 0 0   0 0 0 0 0  0 0 0 0.350571784 0" type="matrix" in="shadowBlurOuter1"></feColorMatrix>
        </filter>
    </defs>
    <g id="Page-1" stroke="none" stroke-width="1" fill="none" fill-rule="evenodd">
        <g id="perch_search" transform="translate(0.000000, -1.000000)">
            <g id="search-darkener" transform="translate(340.000000, 0.000000)" fill="url(#radialGradient-1)" opacity="0.0976004464">
                <circle id="Oval-11" cx="345" cy="345" r="345"></circle>
                <circle id="Oval-11" cx="616" cy="346" r="345"></circle>
                <circle id="Oval-11" cx="891" cy="345" r="345"></circle>
                <circle id="Oval-11" cx="804" cy="346" r="345"></circle>
                <circle id="Oval-11" cx="709.5" cy="345.5" r="344.5"></circle>
                <circle id="Oval-11" cx="636.5" cy="345.5" r="344.5"></circle>
                <circle id="Oval-11" cx="509.5" cy="345.5" r="344.5"></circle>
                <circle id="Oval-11" cx="373.5" cy="369.5" r="344.5"></circle>
            </g>
            <g id="ghost" transform="translate(196.000000, 119.000000)">
                <path d="M109.625007,292.50084 L78.2271735,192.745582 C27.9563068,161.176348 1.95218833,142.142472 0.214818131,135.643953 C-1.52255207,129.145435 19.3928852,129.145435 62.96113,135.643953 C59.8553287,57.6528486 68.9048533,13.1919169 90.1097039,2.26115847 C111.314554,-8.66959997 147.373955,23.0858747 198.287904,97.5275823 C215.003139,49.4967947 228.335498,25.4814009 238.284981,25.4814009 C248.234464,25.4814009 248.234464,60.8914603 238.284981,131.711579 L324.323709,237.890314 C289.10329,222.905131 266.816673,217.274844 257.463857,220.999452 C226.634333,233.276813 223.834308,277.201474 210.204401,278.895534 C176.483685,283.08668 162.219295,261.316029 141.227074,261.316029 C127.190831,261.316029 116.656809,271.710966 109.625007,292.50084 Z" id="Path-13" fill="#D8D8D8"></path>
                <path d="M90.8201414,73.5221932 C86.6835799,86.8197699 101.445788,99.3595904 103.706942,110.261437 C105.968097,121.163284 97.976106,130.772565 103.706942,135.654149 C109.437779,140.535732 121.170037,126.53067 121.535299,110.261437 C121.90056,93.9922051 110.771062,82.6344122 105.101871,73.5221932 C99.4326795,64.4099743 94.9567028,60.2246166 90.8201414,73.5221932 Z" id="Path-14" fill="#9D9D9D"></path>
                <path d="M137.137204,66.8465546 C133.924227,75.3904877 145.390425,83.4475487 147.146723,90.4521822 C148.903021,97.4568157 142.695431,103.630952 147.146723,106.767458 C151.598015,109.903963 160.710771,100.905458 160.994479,90.4521822 C161.278188,79.9989068 152.633612,72.7013198 148.230201,66.8465546 C143.82679,60.9917894 140.35018,58.3026216 137.137204,66.8465546 Z" id="Path-14" fill="#9D9D9D" transform="translate(148.786857, 84.400748) scale(-1, 1) rotate(54.000000) translate(-148.786857, -84.400748) "></path>
                <path d="M131.575759,199.732059 C125.983152,199.732059 112.239524,155.332409 153.895727,138.297268 C195.55193,121.262128 211.044095,162.600065 206.45604,164.625302 C201.867984,166.65054 189.400759,152.206555 182.572067,150.665254 C172.932457,148.489503 165.471751,154.951616 160.655167,155.538658 C148.312193,157.043013 148.630821,160.691755 140.775114,172.630459 C132.919406,184.569162 137.168365,199.732059 131.575759,199.732059 Z" id="Path-15" fill="#9D9D9D"></path>
            </g>
            <g id="ghost" transform="translate(1446.500000, 267.000000) scale(-1, 1) translate(-1446.500000, -267.000000) translate(1317.000000, 84.000000)">
                <path d="M138.954166,365.658481 C108.557853,350.767762 88.4276066,336.906748 78.5634254,324.075437 C68.6992443,311.244126 55.4823288,281.727207 38.912679,235.52468 C14.2471519,216.203636 1.63139564,205.484598 1.0654103,203.367567 C-0.6719599,196.869049 9.67043289,193.79886 32.0925887,194.157001 C11.6340934,116.230966 3.59027385,69.6434024 7.96112999,54.3943107 C22.3112249,4.32953936 49.3893231,-4.31016991 66.8432398,2.65618638 C86.4221665,10.4706948 97.4179929,55.6236041 123.038007,124.879234 C125.226093,130.794035 127.385821,147.404816 129.517193,174.711579 C144.553851,141.490016 157.046921,124.879234 166.996405,124.879234 C176.945888,124.879234 170.861911,151.042012 148.744474,203.367567 C118.979286,260.561721 110.410463,293.653697 123.038007,302.643496 C135.66555,311.633295 180.978698,304.700334 258.97745,281.844613 C241.68787,291.985927 228.366672,298.918888 219.013856,302.643496 C188.184332,314.920857 232.643763,315.517119 219.013856,317.21118 C185.293139,321.402326 176.196622,345.13564 155.204401,345.13564 C141.168158,345.13564 135.751413,351.976587 138.954166,365.658481 Z" id="Path-13" fill="#D8D8D8"></path>
                <path d="M42.4906543,80.0722163 C38.3540928,93.3697929 39.9421107,89.2898027 42.2032649,100.19165 C44.4644191,111.093497 41.0208153,109.308561 46.7516518,114.190145 C52.4824882,119.071729 59.6663597,116.460882 60.0316213,100.19165 C60.3968829,83.9224174 49.2673849,72.5646245 43.5981935,63.4524056 C37.929002,54.3401867 46.6272158,66.7746397 42.4906543,80.0722163 Z" id="Path-14" fill="#9D9D9D" transform="translate(49.982025, 88.362650) rotate(18.000000) translate(-49.982025, -88.362650) "></path>
                <path d="M72.0170115,67.2501511 C68.8040347,75.7940842 74.8741448,76.0100219 76.6304431,83.0146554 C78.3867415,90.0192889 90.194491,93.4679308 90.4781993,83.0146554 C90.7619076,72.56138 82.1173321,65.263793 77.7139211,59.4090278 C73.31051,53.5542627 75.2299883,58.7062181 72.0170115,67.2501511 Z" id="Path-14" fill="#9D9D9D" transform="translate(80.789609, 73.264824) scale(-1, 1) rotate(54.000000) translate(-80.789609, -73.264824) "></path>
                <path d="M70.8205081,174.171907 C65.2279014,174.171907 29.1643047,131.917313 70.8205081,114.882173 C112.476711,97.8470329 115.00394,161.803608 110.415884,163.828846 C105.827829,165.854083 108.190302,145.463982 89.1507521,153.818556 C69.19714,162.574222 76.4131148,174.171907 70.8205081,174.171907 Z" id="Path-15" fill="#9D9D9D"></path>
            </g>
            <g id="searcher" transform="translate(106.000000, 18.000000)">
                <g id="Group-5" opacity="0.250167411" transform="translate(1034.500000, 179.000000) scale(-1, 1) translate(-1034.500000, -179.000000) translate(844.000000, 82.000000)">
                    <rect id="Rectangle-2" stroke="#4A535E" stroke-width="5" fill="#95A3B4" x="2.5" y="2.5" width="376" height="189" rx="8"></rect>
                    <path d="M2.14044944,20.0837004 L378.859551,20.0837004" id="header" stroke="#4A535E" stroke-width="5" stroke-linecap="square"></path>
                    <g id="Group-2" transform="translate(26.541573, 38.458150)" stroke="#6F7883" stroke-linecap="square" stroke-width="5">
                        <path d="M0.428089888,32.0484581 L327.488764,32.0484581" id="Line"></path>
                        <path d="M103.169663,1.28193833 L225.603371,1.28193833" id="Line"></path>
                        <path d="M103.169663,13.246696 L327.488764,13.246696" id="Line"></path>
                        <path d="M0.428089888,44.8678414 L327.488764,44.8678414" id="Line"></path>
                        <path d="M0.428089888,57.6872247 L327.488764,57.6872247" id="Line"></path>
                        <path d="M0.428089888,121.784141 L327.488764,121.784141" id="Line"></path>
                        <path d="M0.428089888,134.603524 L327.488764,134.603524" id="Line"></path>
                        <path d="M0.428089888,70.5066079 L156.252809,70.5066079" id="Line"></path>
                        <path d="M0.428089888,70.5066079 L156.252809,70.5066079" id="Line"></path>
                        <path d="M0.428089888,83.3259912 L156.252809,83.3259912" id="Line"></path>
                        <path d="M0.428089888,96.1453744 L156.252809,96.1453744" id="Line"></path>
                        <path d="M0.428089888,108.964758 L156.252809,108.964758" id="Line"></path>
                    </g>
                    <rect id="Rectangle-4" fill="#848F9C" x="196.065169" y="108.537445" width="158.393258" height="38.4581498"></rect>
                    <ellipse id="Oval-5" fill="#848F9C" cx="38.9561798" cy="45.722467" rx="11.558427" ry="11.5374449"></ellipse>
                    <ellipse id="Oval-5" fill="#848F9C" cx="71.4910112" cy="45.722467" rx="11.558427" ry="11.5374449"></ellipse>
                    <ellipse id="Oval-5" fill="#848F9C" cx="104.025843" cy="45.722467" rx="11.558427" ry="11.5374449"></ellipse>
                </g>
                <g id="Group-5" opacity="0.250167411" transform="translate(1370.500000, 242.000000) scale(-1, 1) translate(-1370.500000, -242.000000) translate(1180.000000, 145.000000)">
                    <rect id="Rectangle-2" stroke="#4A535E" stroke-width="5" fill="#95A3B4" x="2.5" y="2.5" width="376" height="189" rx="8"></rect>
                    <path d="M2.14044944,20.0837004 L378.859551,20.0837004" id="header" stroke="#4A535E" stroke-width="5" stroke-linecap="square"></path>
                    <g id="Group-2" transform="translate(26.541573, 38.458150)" stroke="#6F7883" stroke-linecap="square" stroke-width="5">
                        <path d="M0.428089888,32.0484581 L327.488764,32.0484581" id="Line"></path>
                        <path d="M103.169663,1.28193833 L225.603371,1.28193833" id="Line"></path>
                        <path d="M103.169663,13.246696 L327.488764,13.246696" id="Line"></path>
                        <path d="M0.428089888,44.8678414 L327.488764,44.8678414" id="Line"></path>
                        <path d="M0.428089888,57.6872247 L327.488764,57.6872247" id="Line"></path>
                        <path d="M0.428089888,121.784141 L327.488764,121.784141" id="Line"></path>
                        <path d="M0.428089888,134.603524 L327.488764,134.603524" id="Line"></path>
                        <path d="M0.428089888,70.5066079 L156.252809,70.5066079" id="Line"></path>
                        <path d="M0.428089888,70.5066079 L156.252809,70.5066079" id="Line"></path>
                        <path d="M0.428089888,83.3259912 L156.252809,83.3259912" id="Line"></path>
                        <path d="M0.428089888,96.1453744 L156.252809,96.1453744" id="Line"></path>
                        <path d="M0.428089888,108.964758 L156.252809,108.964758" id="Line"></path>
                    </g>
                    <rect id="Rectangle-4" fill="#848F9C" x="196.065169" y="108.537445" width="158.393258" height="38.4581498"></rect>
                    <ellipse id="Oval-5" fill="#848F9C" cx="38.9561798" cy="45.722467" rx="11.558427" ry="11.5374449"></ellipse>
                    <ellipse id="Oval-5" fill="#848F9C" cx="71.4910112" cy="45.722467" rx="11.558427" ry="11.5374449"></ellipse>
                    <ellipse id="Oval-5" fill="#848F9C" cx="104.025843" cy="45.722467" rx="11.558427" ry="11.5374449"></ellipse>
                </g>
                <g id="Group-5" opacity="0.250167411" transform="translate(190.500000, 373.000000) scale(-1, 1) translate(-190.500000, -373.000000) translate(0.000000, 276.000000)">
                    <rect id="Rectangle-2" stroke="#4A535E" stroke-width="5" fill="#95A3B4" x="2.5" y="2.5" width="376" height="189" rx="8"></rect>
                    <path d="M2.14044944,20.0837004 L378.859551,20.0837004" id="header" stroke="#4A535E" stroke-width="5" stroke-linecap="square"></path>
                    <g id="Group-2" transform="translate(26.541573, 38.458150)" stroke="#6F7883" stroke-linecap="square" stroke-width="5">
                        <path d="M0.428089888,32.0484581 L327.488764,32.0484581" id="Line"></path>
                        <path d="M103.169663,1.28193833 L225.603371,1.28193833" id="Line"></path>
                        <path d="M103.169663,13.246696 L327.488764,13.246696" id="Line"></path>
                        <path d="M0.428089888,44.8678414 L327.488764,44.8678414" id="Line"></path>
                        <path d="M0.428089888,57.6872247 L327.488764,57.6872247" id="Line"></path>
                        <path d="M0.428089888,121.784141 L327.488764,121.784141" id="Line"></path>
                        <path d="M0.428089888,134.603524 L327.488764,134.603524" id="Line"></path>
                        <path d="M0.428089888,70.5066079 L156.252809,70.5066079" id="Line"></path>
                        <path d="M0.428089888,70.5066079 L156.252809,70.5066079" id="Line"></path>
                        <path d="M0.428089888,83.3259912 L156.252809,83.3259912" id="Line"></path>
                        <path d="M0.428089888,96.1453744 L156.252809,96.1453744" id="Line"></path>
                        <path d="M0.428089888,108.964758 L156.252809,108.964758" id="Line"></path>
                    </g>
                    <rect id="Rectangle-4" fill="#848F9C" x="196.065169" y="108.537445" width="158.393258" height="38.4581498"></rect>
                    <ellipse id="Oval-5" fill="#848F9C" cx="38.9561798" cy="45.722467" rx="11.558427" ry="11.5374449"></ellipse>
                    <ellipse id="Oval-5" fill="#848F9C" cx="71.4910112" cy="45.722467" rx="11.558427" ry="11.5374449"></ellipse>
                    <ellipse id="Oval-5" fill="#848F9C" cx="104.025843" cy="45.722467" rx="11.558427" ry="11.5374449"></ellipse>
                </g>
                <g id="Group-5" opacity="0.250167411" transform="translate(1296.000000, 276.000000)">
                    <rect id="Rectangle-2" stroke="#4A535E" stroke-width="5" fill="#95A3B4" x="2.5" y="2.5" width="376" height="189" rx="8"></rect>
                    <path d="M2.14044944,20.0837004 L378.859551,20.0837004" id="header" stroke="#4A535E" stroke-width="5" stroke-linecap="square"></path>
                    <g id="Group-2" transform="translate(26.541573, 38.458150)" stroke="#6F7883" stroke-linecap="square" stroke-width="5">
                        <path d="M0.428089888,32.0484581 L327.488764,32.0484581" id="Line"></path>
                        <path d="M103.169663,1.28193833 L225.603371,1.28193833" id="Line"></path>
                        <path d="M103.169663,13.246696 L327.488764,13.246696" id="Line"></path>
                        <path d="M0.428089888,44.8678414 L327.488764,44.8678414" id="Line"></path>
                        <path d="M0.428089888,57.6872247 L327.488764,57.6872247" id="Line"></path>
                        <path d="M0.428089888,121.784141 L327.488764,121.784141" id="Line"></path>
                        <path d="M0.428089888,134.603524 L327.488764,134.603524" id="Line"></path>
                        <path d="M0.428089888,70.5066079 L156.252809,70.5066079" id="Line"></path>
                        <path d="M0.428089888,70.5066079 L156.252809,70.5066079" id="Line"></path>
                        <path d="M0.428089888,83.3259912 L156.252809,83.3259912" id="Line"></path>
                        <path d="M0.428089888,96.1453744 L156.252809,96.1453744" id="Line"></path>
                        <path d="M0.428089888,108.964758 L156.252809,108.964758" id="Line"></path>
                    </g>
                    <rect id="Rectangle-4" fill="#848F9C" x="196.065169" y="108.537445" width="158.393258" height="38.4581498"></rect>
                    <ellipse id="Oval-5" fill="#848F9C" cx="38.9561798" cy="45.722467" rx="11.558427" ry="11.5374449"></ellipse>
                    <ellipse id="Oval-5" fill="#848F9C" cx="71.4910112" cy="45.722467" rx="11.558427" ry="11.5374449"></ellipse>
                    <ellipse id="Oval-5" fill="#848F9C" cx="104.025843" cy="45.722467" rx="11.558427" ry="11.5374449"></ellipse>
                </g>
                <g id="Group-5" opacity="0.250167411" transform="translate(488.500000, 484.000000) scale(-1, 1) translate(-488.500000, -484.000000) translate(298.000000, 387.000000)">
                    <rect id="Rectangle-2" stroke="#4A535E" stroke-width="5" fill="#95A3B4" x="2.5" y="2.5" width="376" height="189" rx="8"></rect>
                    <path d="M2.14044944,20.0837004 L378.859551,20.0837004" id="header" stroke="#4A535E" stroke-width="5" stroke-linecap="square"></path>
                    <g id="Group-2" transform="translate(26.541573, 38.458150)" stroke="#6F7883" stroke-linecap="square" stroke-width="5">
                        <path d="M0.428089888,32.0484581 L327.488764,32.0484581" id="Line"></path>
                        <path d="M103.169663,1.28193833 L225.603371,1.28193833" id="Line"></path>
                        <path d="M103.169663,13.246696 L327.488764,13.246696" id="Line"></path>
                        <path d="M0.428089888,44.8678414 L327.488764,44.8678414" id="Line"></path>
                        <path d="M0.428089888,57.6872247 L327.488764,57.6872247" id="Line"></path>
                        <path d="M0.428089888,121.784141 L327.488764,121.784141" id="Line"></path>
                        <path d="M0.428089888,134.603524 L327.488764,134.603524" id="Line"></path>
                        <path d="M0.428089888,70.5066079 L156.252809,70.5066079" id="Line"></path>
                        <path d="M0.428089888,70.5066079 L156.252809,70.5066079" id="Line"></path>
                        <path d="M0.428089888,83.3259912 L156.252809,83.3259912" id="Line"></path>
                        <path d="M0.428089888,96.1453744 L156.252809,96.1453744" id="Line"></path>
                        <path d="M0.428089888,108.964758 L156.252809,108.964758" id="Line"></path>
                    </g>
                    <rect id="Rectangle-4" fill="#848F9C" x="196.065169" y="108.537445" width="158.393258" height="38.4581498"></rect>
                    <ellipse id="Oval-5" fill="#848F9C" cx="38.9561798" cy="45.722467" rx="11.558427" ry="11.5374449"></ellipse>
                    <ellipse id="Oval-5" fill="#848F9C" cx="71.4910112" cy="45.722467" rx="11.558427" ry="11.5374449"></ellipse>
                    <ellipse id="Oval-5" fill="#848F9C" cx="104.025843" cy="45.722467" rx="11.558427" ry="11.5374449"></ellipse>
                </g>
                <g id="Group-4" opacity="0.437109375" transform="translate(878.000000, 365.000000)">
                    <rect id="Rectangle-2" stroke="#4A535E" stroke-width="5" fill="#95A3B4" x="2.5" y="2.5" width="376" height="189" rx="8"></rect>
                    <path d="M2.14044944,20.0837004 L378.859551,20.0837004" id="header" stroke="#4A535E" stroke-width="5" stroke-linecap="square"></path>
                    <g id="Group-2" transform="translate(26.541573, 38.458150)" stroke="#6F7883" stroke-linecap="square" stroke-width="5">
                        <path d="M0.428089888,32.0484581 L327.488764,32.0484581" id="Line"></path>
                        <path d="M103.169663,1.28193833 L225.603371,1.28193833" id="Line"></path>
                        <path d="M103.169663,13.246696 L327.488764,13.246696" id="Line"></path>
                        <path d="M0.428089888,44.8678414 L327.488764,44.8678414" id="Line"></path>
                        <path d="M0.428089888,57.6872247 L327.488764,57.6872247" id="Line"></path>
                        <path d="M0.428089888,121.784141 L327.488764,121.784141" id="Line"></path>
                        <path d="M0.428089888,134.603524 L327.488764,134.603524" id="Line"></path>
                        <path d="M0.428089888,70.5066079 L156.252809,70.5066079" id="Line"></path>
                        <path d="M0.428089888,70.5066079 L156.252809,70.5066079" id="Line"></path>
                        <path d="M0.428089888,83.3259912 L156.252809,83.3259912" id="Line"></path>
                        <path d="M0.428089888,96.1453744 L156.252809,96.1453744" id="Line"></path>
                        <path d="M0.428089888,108.964758 L156.252809,108.964758" id="Line"></path>
                    </g>
                    <rect id="Rectangle-4" fill="#848F9C" x="196.065169" y="108.537445" width="158.393258" height="38.4581498"></rect>
                    <ellipse id="Oval-5" fill="#848F9C" cx="38.9561798" cy="45.722467" rx="11.558427" ry="11.5374449"></ellipse>
                    <ellipse id="Oval-5" fill="#848F9C" cx="71.4910112" cy="45.722467" rx="11.558427" ry="11.5374449"></ellipse>
                    <ellipse id="Oval-5" fill="#848F9C" cx="104.025843" cy="45.722467" rx="11.558427" ry="11.5374449"></ellipse>
                </g>
                <g id="tr" opacity="0.321316964" transform="translate(737.000000, 93.000000)">
                    <rect id="Rectangle" stroke="#2F2F2F" stroke-width="6" fill="#CFCFCF" x="3" y="3" width="394" height="333" rx="8"></rect>
                    <path d="M3.5,30.5 L397.5,30.5" id="header" stroke="#313131" stroke-width="5" stroke-linecap="square"></path>
                    <g id="Group" transform="translate(200.000000, 116.500000) scale(-1, 1) translate(-200.000000, -116.500000) translate(20.000000, 47.000000)" stroke="#858585" stroke-linecap="square" stroke-width="5">
                        <path d="M0.46997389,16.5 L359.530026,16.5" id="Line"></path>
                        <path d="M241.5,1.5 L359.530026,1.5" id="Line"></path>
                        <path d="M0.5,1.5 L223.530026,1.5" id="Line"></path>
                        <path d="M0.46997389,31.5 L359.530026,31.5" id="Line"></path>
                        <path d="M0.46997389,46.5 L359.530026,46.5" id="Line"></path>
                        <path d="M0.46997389,121.5 L359.530026,121.5" id="Line"></path>
                        <path d="M0.46997389,136.5 L359.530026,136.5" id="Line"></path>
                        <path d="M0.469945355,61.5 L171.530055,61.5" id="Line"></path>
                        <path d="M0.469945355,61.5 L171.530055,61.5" id="Line"></path>
                        <path d="M0.469945355,76.5 L171.530055,76.5" id="Line"></path>
                        <path d="M0.469945355,91.5 L171.530055,91.5" id="Line"></path>
                        <path d="M0.469945355,106.5 L171.530055,106.5" id="Line"></path>
                    </g>
                    <g id="Group-3" transform="translate(19.000000, 196.000000)" stroke="#7A7A7A" stroke-linecap="square" stroke-width="5">
                        <path d="M0.237597911,2.5 L181.762402,2.5" id="Line"></path>
                        <path d="M0.237597911,17.5 L181.762402,17.5" id="Line"></path>
                        <path d="M0.237597911,32.5 L181.762402,32.5" id="Line"></path>
                        <path d="M0.237597911,107.5 L181.762402,107.5" id="Line"></path>
                        <path d="M0.237597911,122.5 L181.762402,122.5" id="Line"></path>
                        <path d="M0.237704918,47.5 L86.7622951,47.5" id="Line"></path>
                        <path d="M0.237704918,47.5 L86.7622951,47.5" id="Line"></path>
                        <path d="M0.237704918,62.5 L86.7622951,62.5" id="Line"></path>
                        <path d="M0.237704918,77.5 L86.7622951,77.5" id="Line"></path>
                        <path d="M0.237704918,92.5 L86.7622951,92.5" id="Line"></path>
                    </g>
                    <rect id="Rectangle-3" fill="#B8B8B8" x="20" y="110" width="172" height="45"></rect>
                    <path d="M220,254.069597 C226.738707,273.320346 235.275207,282.94572 245.6095,282.94572 C262.145658,282.94572 271.365667,228 291.468784,228 C310.728552,228 318.531794,298.50508 336.447307,298.50508 C353.7586,298.50508 358.824495,254.069597 381,254.069597" id="Line-2" stroke="#616161" stroke-width="3" stroke-linecap="square" stroke-dasharray="5" transform="translate(300.500000, 263.252540) scale(1, -1) translate(-300.500000, -263.252540) "></path>
                    <rect id="Rectangle-3" stroke="#939393" stroke-width="4" x="219" y="200" width="162" height="119"></rect>
                    <rect id="Rectangle-3" fill="#B8B8B8" x="119" y="243" width="85" height="45"></rect>
                    <path d="M220,254.069597 C226.738707,273.320346 235.275207,282.94572 245.6095,282.94572 C262.145658,282.94572 271.365667,228 291.468784,228 C310.728552,228 318.531794,298.50508 336.447307,298.50508 C353.7586,298.50508 358.824495,254.069597 381,254.069597" id="Line-2" stroke="#858585" stroke-width="3" stroke-linecap="square"></path>
                </g>
                <g id="tr" opacity="0.244810268" transform="translate(1180.000000, 180.000000) scale(-1, 1) translate(-1180.000000, -180.000000) translate(1009.000000, 35.000000)">
                    <rect id="Rectangle" stroke="#2F2F2F" stroke-width="6" fill="#CFCFCF" x="3" y="3" width="336" height="284" rx="8"></rect>
                    <path d="M2.9925,26.0914454 L339.8625,26.0914454" id="header" stroke="#313131" stroke-width="5" stroke-linecap="square"></path>
                    <g id="Group" transform="translate(170.900000, 99.706490) scale(-1, 1) translate(-170.900000, -99.706490) translate(16.900000, 40.206490)" stroke="#858585" stroke-linecap="square" stroke-width="5">
                        <path d="M0.401827676,14.1150442 L307.398172,14.1150442" id="Line"></path>
                        <path d="M206.4825,1.28318584 L307.398172,1.28318584" id="Line"></path>
                        <path d="M0.4275,1.28318584 L191.118172,1.28318584" id="Line"></path>
                        <path d="M0.401827676,26.9469027 L307.398172,26.9469027" id="Line"></path>
                        <path d="M0.401827676,39.7787611 L307.398172,39.7787611" id="Line"></path>
                        <path d="M0.401827676,103.938053 L307.398172,103.938053" id="Line"></path>
                        <path d="M0.401827676,116.769912 L307.398172,116.769912" id="Line"></path>
                        <path d="M0.401803279,52.6106195 L146.658197,52.6106195" id="Line"></path>
                        <path d="M0.401803279,52.6106195 L146.658197,52.6106195" id="Line"></path>
                        <path d="M0.401803279,65.4424779 L146.658197,65.4424779" id="Line"></path>
                        <path d="M0.401803279,78.2743363 L146.658197,78.2743363" id="Line"></path>
                        <path d="M0.401803279,91.1061947 L146.658197,91.1061947" id="Line"></path>
                    </g>
                    <g id="Group-3" transform="translate(16.245000, 167.669617)" stroke="#7A7A7A" stroke-linecap="square" stroke-width="5">
                        <path d="M0.203146214,2.13864307 L155.406854,2.13864307" id="Line"></path>
                        <path d="M0.203146214,14.9705015 L155.406854,14.9705015" id="Line"></path>
                        <path d="M0.203146214,27.8023599 L155.406854,27.8023599" id="Line"></path>
                        <path d="M0.203146214,91.9616519 L155.406854,91.9616519" id="Line"></path>
                        <path d="M0.203146214,104.79351 L155.406854,104.79351" id="Line"></path>
                        <path d="M0.203237705,40.6342183 L74.1817623,40.6342183" id="Line"></path>
                        <path d="M0.203237705,40.6342183 L74.1817623,40.6342183" id="Line"></path>
                        <path d="M0.203237705,53.4660767 L74.1817623,53.4660767" id="Line"></path>
                        <path d="M0.203237705,66.2979351 L74.1817623,66.2979351" id="Line"></path>
                        <path d="M0.203237705,79.1297935 L74.1817623,79.1297935" id="Line"></path>
                    </g>
                    <rect id="Rectangle-3" fill="#B8B8B8" x="17.1" y="94.100295" width="147.06" height="38.4955752"></rect>
                    <path d="M188.1,217.345673 C193.861594,233.813865 201.160302,242.047961 209.996122,242.047961 C224.134538,242.047961 232.017645,195.044248 249.20581,195.044248 C265.672912,195.044248 272.344684,255.358328 287.662448,255.358328 C302.463603,255.358328 306.794943,217.345673 325.755,217.345673" id="Line-2" stroke="#616161" stroke-width="3" stroke-linecap="square" stroke-dasharray="5" transform="translate(256.927500, 225.201288) scale(1, -1) translate(-256.927500, -225.201288) "></path>
                    <rect id="Rectangle-3" stroke="#939393" stroke-width="4" x="187.535" y="171.380531" width="137.93" height="101.221239"></rect>
                    <rect id="Rectangle-3" fill="#B8B8B8" x="101.745" y="207.876106" width="72.675" height="38.4955752"></rect>
                    <path d="M188.1,217.345673 C193.861594,233.813865 201.160302,242.047961 209.996122,242.047961 C224.134538,242.047961 232.017645,195.044248 249.20581,195.044248 C265.672912,195.044248 272.344684,255.358328 287.662448,255.358328 C302.463603,255.358328 306.794943,217.345673 325.755,217.345673" id="Line-2" stroke="#858585" stroke-width="3" stroke-linecap="square"></path>
                </g>
                <g id="tr" opacity="0.244810268" transform="translate(412.000000, 222.500000) scale(-1, 1) translate(-412.000000, -222.500000) translate(191.000000, 35.000000)">
                    <rect id="Rectangle" stroke="#2F2F2F" stroke-width="6" fill="#CFCFCF" x="3" y="3" width="436" height="369" rx="8"></rect>
                    <path d="M3.55189873,33.5 L438.448101,33.5" id="header" stroke="#313131" stroke-width="5" stroke-linecap="square"></path>
                    <g id="Group" transform="translate(221.000000, 129.000000) scale(-1, 1) translate(-221.000000, -129.000000) translate(22.000000, 52.000000)" stroke="#858585" stroke-linecap="square" stroke-width="5">
                        <path d="M0.519244854,18.2665279 L397.222314,18.2665279" id="Line"></path>
                        <path d="M266.818295,1.66059344 L397.222314,1.66059344" id="Line"></path>
                        <path d="M0.552418831,1.66059344 L246.964392,1.66059344" id="Line"></path>
                        <path d="M0.519244854,34.8724623 L397.222314,34.8724623" id="Line"></path>
                        <path d="M0.519244854,51.4783967 L397.222314,51.4783967" id="Line"></path>
                        <path d="M0.519244854,134.508069 L397.222314,134.508069" id="Line"></path>
                        <path d="M0.519244854,151.114003 L397.222314,151.114003" id="Line"></path>
                        <path d="M0.519213328,68.0843311 L189.512865,68.0843311" id="Line"></path>
                        <path d="M0.519213328,68.0843311 L189.512865,68.0843311" id="Line"></path>
                        <path d="M0.519213328,84.6902655 L189.512865,84.6902655" id="Line"></path>
                        <path d="M0.519213328,101.2962 L189.512865,101.2962" id="Line"></path>
                        <path d="M0.519213328,117.902134 L189.512865,117.902134" id="Line"></path>
                    </g>
                    <g id="Group-3" transform="translate(21.000000, 217.000000)" stroke="#7A7A7A" stroke-linecap="square" stroke-width="5">
                        <path d="M0.263048303,2.75824994 L201.231952,2.75824994" id="Line"></path>
                        <path d="M0.263048303,19.3077496 L201.231952,19.3077496" id="Line"></path>
                        <path d="M0.263048303,35.8572492 L201.231952,35.8572492" id="Line"></path>
                        <path d="M0.263048303,118.604747 L201.231952,118.604747" id="Line"></path>
                        <path d="M0.263048303,135.154247 L201.231952,135.154247" id="Line"></path>
                        <path d="M0.263166772,52.4067488 L96.0558717,52.4067488" id="Line"></path>
                        <path d="M0.263166772,52.4067488 L96.0558717,52.4067488" id="Line"></path>
                        <path d="M0.263166772,68.9562484 L96.0558717,68.9562484" id="Line"></path>
                        <path d="M0.263166772,85.5057481 L96.0558717,85.5057481" id="Line"></path>
                        <path d="M0.263166772,102.055248 L96.0558717,102.055248" id="Line"></path>
                    </g>
                    <rect id="Rectangle-3" fill="#B8B8B8" x="22" y="122" width="190" height="50"></rect>
                    <path d="M243,280.84088 C250.450247,302.138046 259.888117,312.786629 271.313609,312.786629 C289.595821,312.786629 299.789371,252 322.015177,252 C343.308585,252 351.935772,330 371.742986,330 C390.882179,330 396.482982,280.84088 421,280.84088" id="Line-2" stroke="#616161" stroke-width="3" stroke-linecap="square" stroke-dasharray="5" transform="translate(332.000000, 291.000000) scale(1, -1) translate(-332.000000, -291.000000) "></path>
                    <rect id="Rectangle-3" stroke="#939393" stroke-width="4" x="242" y="221" width="179" height="132"></rect>
                    <rect id="Rectangle-3" fill="#B8B8B8" x="131" y="269" width="94" height="50"></rect>
                    <path d="M243,280.84088 C250.450247,302.138046 259.888117,312.786629 271.313609,312.786629 C289.595821,312.786629 299.789371,252 322.015177,252 C343.308585,252 351.935772,330 371.742986,330 C390.882179,330 396.482982,280.84088 421,280.84088" id="Line-2" stroke="#858585" stroke-width="3" stroke-linecap="square"></path>
                </g>
                <g id="tr" opacity="0.244810268" transform="translate(923.000000, 206.000000)">
                    <rect id="Rectangle" stroke="#2F2F2F" stroke-width="6" fill="#CFCFCF" x="3" y="3" width="436" height="369" rx="8"></rect>
                    <path d="M3.55189873,33.5 L438.448101,33.5" id="header" stroke="#313131" stroke-width="5" stroke-linecap="square"></path>
                    <g id="Group" transform="translate(221.000000, 129.000000) scale(-1, 1) translate(-221.000000, -129.000000) translate(22.000000, 52.000000)" stroke="#858585" stroke-linecap="square" stroke-width="5">
                        <path d="M0.519244854,18.2665279 L397.222314,18.2665279" id="Line"></path>
                        <path d="M266.818295,1.66059344 L397.222314,1.66059344" id="Line"></path>
                        <path d="M0.552418831,1.66059344 L246.964392,1.66059344" id="Line"></path>
                        <path d="M0.519244854,34.8724623 L397.222314,34.8724623" id="Line"></path>
                        <path d="M0.519244854,51.4783967 L397.222314,51.4783967" id="Line"></path>
                        <path d="M0.519244854,134.508069 L397.222314,134.508069" id="Line"></path>
                        <path d="M0.519244854,151.114003 L397.222314,151.114003" id="Line"></path>
                        <path d="M0.519213328,68.0843311 L189.512865,68.0843311" id="Line"></path>
                        <path d="M0.519213328,68.0843311 L189.512865,68.0843311" id="Line"></path>
                        <path d="M0.519213328,84.6902655 L189.512865,84.6902655" id="Line"></path>
                        <path d="M0.519213328,101.2962 L189.512865,101.2962" id="Line"></path>
                        <path d="M0.519213328,117.902134 L189.512865,117.902134" id="Line"></path>
                    </g>
                    <g id="Group-3" transform="translate(21.000000, 217.000000)" stroke="#7A7A7A" stroke-linecap="square" stroke-width="5">
                        <path d="M0.263048303,2.75824994 L201.231952,2.75824994" id="Line"></path>
                        <path d="M0.263048303,19.3077496 L201.231952,19.3077496" id="Line"></path>
                        <path d="M0.263048303,35.8572492 L201.231952,35.8572492" id="Line"></path>
                        <path d="M0.263048303,118.604747 L201.231952,118.604747" id="Line"></path>
                        <path d="M0.263048303,135.154247 L201.231952,135.154247" id="Line"></path>
                        <path d="M0.263166772,52.4067488 L96.0558717,52.4067488" id="Line"></path>
                        <path d="M0.263166772,52.4067488 L96.0558717,52.4067488" id="Line"></path>
                        <path d="M0.263166772,68.9562484 L96.0558717,68.9562484" id="Line"></path>
                        <path d="M0.263166772,85.5057481 L96.0558717,85.5057481" id="Line"></path>
                        <path d="M0.263166772,102.055248 L96.0558717,102.055248" id="Line"></path>
                    </g>
                    <rect id="Rectangle-3" fill="#B8B8B8" x="22" y="122" width="190" height="50"></rect>
                    <path d="M243,280.84088 C250.450247,302.138046 259.888117,312.786629 271.313609,312.786629 C289.595821,312.786629 299.789371,252 322.015177,252 C343.308585,252 351.935772,330 371.742986,330 C390.882179,330 396.482982,280.84088 421,280.84088" id="Line-2" stroke="#616161" stroke-width="3" stroke-linecap="square" stroke-dasharray="5" transform="translate(332.000000, 291.000000) scale(1, -1) translate(-332.000000, -291.000000) "></path>
                    <rect id="Rectangle-3" stroke="#939393" stroke-width="4" x="242" y="221" width="179" height="132"></rect>
                    <rect id="Rectangle-3" fill="#B8B8B8" x="131" y="269" width="94" height="50"></rect>
                    <path d="M243,280.84088 C250.450247,302.138046 259.888117,312.786629 271.313609,312.786629 C289.595821,312.786629 299.789371,252 322.015177,252 C343.308585,252 351.935772,330 371.742986,330 C390.882179,330 396.482982,280.84088 421,280.84088" id="Line-2" stroke="#858585" stroke-width="3" stroke-linecap="square"></path>
                </g>
                <g id="tr" opacity="0.244810268" transform="translate(804.000000, 509.000000) scale(-1, 1) translate(-804.000000, -509.000000) translate(633.000000, 364.000000)">
                    <rect id="Rectangle" stroke="#2F2F2F" stroke-width="6" fill="#CFCFCF" x="3" y="3" width="336" height="284" rx="8"></rect>
                    <path d="M2.9925,26.0914454 L339.8625,26.0914454" id="header" stroke="#313131" stroke-width="5" stroke-linecap="square"></path>
                    <g id="Group" transform="translate(170.900000, 99.706490) scale(-1, 1) translate(-170.900000, -99.706490) translate(16.900000, 40.206490)" stroke="#858585" stroke-linecap="square" stroke-width="5">
                        <path d="M0.401827676,14.1150442 L307.398172,14.1150442" id="Line"></path>
                        <path d="M206.4825,1.28318584 L307.398172,1.28318584" id="Line"></path>
                        <path d="M0.4275,1.28318584 L191.118172,1.28318584" id="Line"></path>
                        <path d="M0.401827676,26.9469027 L307.398172,26.9469027" id="Line"></path>
                        <path d="M0.401827676,39.7787611 L307.398172,39.7787611" id="Line"></path>
                        <path d="M0.401827676,103.938053 L307.398172,103.938053" id="Line"></path>
                        <path d="M0.401827676,116.769912 L307.398172,116.769912" id="Line"></path>
                        <path d="M0.401803279,52.6106195 L146.658197,52.6106195" id="Line"></path>
                        <path d="M0.401803279,52.6106195 L146.658197,52.6106195" id="Line"></path>
                        <path d="M0.401803279,65.4424779 L146.658197,65.4424779" id="Line"></path>
                        <path d="M0.401803279,78.2743363 L146.658197,78.2743363" id="Line"></path>
                        <path d="M0.401803279,91.1061947 L146.658197,91.1061947" id="Line"></path>
                    </g>
                    <g id="Group-3" transform="translate(16.245000, 167.669617)" stroke="#7A7A7A" stroke-linecap="square" stroke-width="5">
                        <path d="M0.203146214,2.13864307 L155.406854,2.13864307" id="Line"></path>
                        <path d="M0.203146214,14.9705015 L155.406854,14.9705015" id="Line"></path>
                        <path d="M0.203146214,27.8023599 L155.406854,27.8023599" id="Line"></path>
                        <path d="M0.203146214,91.9616519 L155.406854,91.9616519" id="Line"></path>
                        <path d="M0.203146214,104.79351 L155.406854,104.79351" id="Line"></path>
                        <path d="M0.203237705,40.6342183 L74.1817623,40.6342183" id="Line"></path>
                        <path d="M0.203237705,40.6342183 L74.1817623,40.6342183" id="Line"></path>
                        <path d="M0.203237705,53.4660767 L74.1817623,53.4660767" id="Line"></path>
                        <path d="M0.203237705,66.2979351 L74.1817623,66.2979351" id="Line"></path>
                        <path d="M0.203237705,79.1297935 L74.1817623,79.1297935" id="Line"></path>
                    </g>
                    <rect id="Rectangle-3" fill="#B8B8B8" x="17.1" y="94.100295" width="147.06" height="38.4955752"></rect>
                    <path d="M188.1,217.345673 C193.861594,233.813865 201.160302,242.047961 209.996122,242.047961 C224.134538,242.047961 232.017645,195.044248 249.20581,195.044248 C265.672912,195.044248 272.344684,255.358328 287.662448,255.358328 C302.463603,255.358328 306.794943,217.345673 325.755,217.345673" id="Line-2" stroke="#616161" stroke-width="3" stroke-linecap="square" stroke-dasharray="5" transform="translate(256.927500, 225.201288) scale(1, -1) translate(-256.927500, -225.201288) "></path>
                    <rect id="Rectangle-3" stroke="#939393" stroke-width="4" x="187.535" y="171.380531" width="137.93" height="101.221239"></rect>
                    <rect id="Rectangle-3" fill="#B8B8B8" x="101.745" y="207.876106" width="72.675" height="38.4955752"></rect>
                    <path d="M188.1,217.345673 C193.861594,233.813865 201.160302,242.047961 209.996122,242.047961 C224.134538,242.047961 232.017645,195.044248 249.20581,195.044248 C265.672912,195.044248 272.344684,255.358328 287.662448,255.358328 C302.463603,255.358328 306.794943,217.345673 325.755,217.345673" id="Line-2" stroke="#858585" stroke-width="3" stroke-linecap="square"></path>
                </g>
                <g id="tr" opacity="0.321316964" transform="translate(508.000000, 339.000000) scale(-1, 1) translate(-508.000000, -339.000000) translate(337.000000, 194.000000)">
                    <rect id="Rectangle" stroke="#2F2F2F" stroke-width="6" fill="#CFCFCF" x="3" y="3" width="336" height="284" rx="8"></rect>
                    <path d="M2.9925,26.0914454 L339.8625,26.0914454" id="header" stroke="#313131" stroke-width="5" stroke-linecap="square"></path>
                    <g id="Group" transform="translate(170.900000, 99.706490) scale(-1, 1) translate(-170.900000, -99.706490) translate(16.900000, 40.206490)" stroke="#858585" stroke-linecap="square" stroke-width="5">
                        <path d="M0.401827676,14.1150442 L307.398172,14.1150442" id="Line"></path>
                        <path d="M206.4825,1.28318584 L307.398172,1.28318584" id="Line"></path>
                        <path d="M0.4275,1.28318584 L191.118172,1.28318584" id="Line"></path>
                        <path d="M0.401827676,26.9469027 L307.398172,26.9469027" id="Line"></path>
                        <path d="M0.401827676,39.7787611 L307.398172,39.7787611" id="Line"></path>
                        <path d="M0.401827676,103.938053 L307.398172,103.938053" id="Line"></path>
                        <path d="M0.401827676,116.769912 L307.398172,116.769912" id="Line"></path>
                        <path d="M0.401803279,52.6106195 L146.658197,52.6106195" id="Line"></path>
                        <path d="M0.401803279,52.6106195 L146.658197,52.6106195" id="Line"></path>
                        <path d="M0.401803279,65.4424779 L146.658197,65.4424779" id="Line"></path>
                        <path d="M0.401803279,78.2743363 L146.658197,78.2743363" id="Line"></path>
                        <path d="M0.401803279,91.1061947 L146.658197,91.1061947" id="Line"></path>
                    </g>
                    <g id="Group-3" transform="translate(16.245000, 167.669617)" stroke="#7A7A7A" stroke-linecap="square" stroke-width="5">
                        <path d="M0.203146214,2.13864307 L155.406854,2.13864307" id="Line"></path>
                        <path d="M0.203146214,14.9705015 L155.406854,14.9705015" id="Line"></path>
                        <path d="M0.203146214,27.8023599 L155.406854,27.8023599" id="Line"></path>
                        <path d="M0.203146214,91.9616519 L155.406854,91.9616519" id="Line"></path>
                        <path d="M0.203146214,104.79351 L155.406854,104.79351" id="Line"></path>
                        <path d="M0.203237705,40.6342183 L74.1817623,40.6342183" id="Line"></path>
                        <path d="M0.203237705,40.6342183 L74.1817623,40.6342183" id="Line"></path>
                        <path d="M0.203237705,53.4660767 L74.1817623,53.4660767" id="Line"></path>
                        <path d="M0.203237705,66.2979351 L74.1817623,66.2979351" id="Line"></path>
                        <path d="M0.203237705,79.1297935 L74.1817623,79.1297935" id="Line"></path>
                    </g>
                    <rect id="Rectangle-3" fill="#B8B8B8" x="17.1" y="94.100295" width="147.06" height="38.4955752"></rect>
                    <path d="M188.1,217.345673 C193.861594,233.813865 201.160302,242.047961 209.996122,242.047961 C224.134538,242.047961 232.017645,195.044248 249.20581,195.044248 C265.672912,195.044248 272.344684,255.358328 287.662448,255.358328 C302.463603,255.358328 306.794943,217.345673 325.755,217.345673" id="Line-2" stroke="#616161" stroke-width="3" stroke-linecap="square" stroke-dasharray="5" transform="translate(256.927500, 225.201288) scale(1, -1) translate(-256.927500, -225.201288) "></path>
                    <rect id="Rectangle-3" stroke="#939393" stroke-width="4" x="187.535" y="171.380531" width="137.93" height="101.221239"></rect>
                    <rect id="Rectangle-3" fill="#B8B8B8" x="101.745" y="207.876106" width="72.675" height="38.4955752"></rect>
                    <path d="M188.1,217.345673 C193.861594,233.813865 201.160302,242.047961 209.996122,242.047961 C224.134538,242.047961 232.017645,195.044248 249.20581,195.044248 C265.672912,195.044248 272.344684,255.358328 287.662448,255.358328 C302.463603,255.358328 306.794943,217.345673 325.755,217.345673" id="Line-2" stroke="#858585" stroke-width="3" stroke-linecap="square"></path>
                </g>
                <g id="tr" opacity="0.244810268" transform="translate(463.000000, 97.000000)">
                    <rect id="Rectangle" stroke="#2F2F2F" stroke-width="6" fill="#CFCFCF" x="3" y="3" width="336" height="284" rx="8"></rect>
                    <path d="M2.9925,26.0914454 L339.8625,26.0914454" id="header" stroke="#313131" stroke-width="5" stroke-linecap="square"></path>
                    <g id="Group" transform="translate(170.900000, 99.706490) scale(-1, 1) translate(-170.900000, -99.706490) translate(16.900000, 40.206490)" stroke="#858585" stroke-linecap="square" stroke-width="5">
                        <path d="M0.401827676,14.1150442 L307.398172,14.1150442" id="Line"></path>
                        <path d="M206.4825,1.28318584 L307.398172,1.28318584" id="Line"></path>
                        <path d="M0.4275,1.28318584 L191.118172,1.28318584" id="Line"></path>
                        <path d="M0.401827676,26.9469027 L307.398172,26.9469027" id="Line"></path>
                        <path d="M0.401827676,39.7787611 L307.398172,39.7787611" id="Line"></path>
                        <path d="M0.401827676,103.938053 L307.398172,103.938053" id="Line"></path>
                        <path d="M0.401827676,116.769912 L307.398172,116.769912" id="Line"></path>
                        <path d="M0.401803279,52.6106195 L146.658197,52.6106195" id="Line"></path>
                        <path d="M0.401803279,52.6106195 L146.658197,52.6106195" id="Line"></path>
                        <path d="M0.401803279,65.4424779 L146.658197,65.4424779" id="Line"></path>
                        <path d="M0.401803279,78.2743363 L146.658197,78.2743363" id="Line"></path>
                        <path d="M0.401803279,91.1061947 L146.658197,91.1061947" id="Line"></path>
                    </g>
                    <g id="Group-3" transform="translate(16.245000, 167.669617)" stroke="#7A7A7A" stroke-linecap="square" stroke-width="5">
                        <path d="M0.203146214,2.13864307 L155.406854,2.13864307" id="Line"></path>
                        <path d="M0.203146214,14.9705015 L155.406854,14.9705015" id="Line"></path>
                        <path d="M0.203146214,27.8023599 L155.406854,27.8023599" id="Line"></path>
                        <path d="M0.203146214,91.9616519 L155.406854,91.9616519" id="Line"></path>
                        <path d="M0.203146214,104.79351 L155.406854,104.79351" id="Line"></path>
                        <path d="M0.203237705,40.6342183 L74.1817623,40.6342183" id="Line"></path>
                        <path d="M0.203237705,40.6342183 L74.1817623,40.6342183" id="Line"></path>
                        <path d="M0.203237705,53.4660767 L74.1817623,53.4660767" id="Line"></path>
                        <path d="M0.203237705,66.2979351 L74.1817623,66.2979351" id="Line"></path>
                        <path d="M0.203237705,79.1297935 L74.1817623,79.1297935" id="Line"></path>
                    </g>
                    <rect id="Rectangle-3" fill="#B8B8B8" x="17.1" y="94.100295" width="147.06" height="38.4955752"></rect>
                    <path d="M188.1,217.345673 C193.861594,233.813865 201.160302,242.047961 209.996122,242.047961 C224.134538,242.047961 232.017645,195.044248 249.20581,195.044248 C265.672912,195.044248 272.344684,255.358328 287.662448,255.358328 C302.463603,255.358328 306.794943,217.345673 325.755,217.345673" id="Line-2" stroke="#616161" stroke-width="3" stroke-linecap="square" stroke-dasharray="5" transform="translate(256.927500, 225.201288) scale(1, -1) translate(-256.927500, -225.201288) "></path>
                    <rect id="Rectangle-3" stroke="#939393" stroke-width="4" x="187.535" y="171.380531" width="137.93" height="101.221239"></rect>
                    <rect id="Rectangle-3" fill="#B8B8B8" x="101.745" y="207.876106" width="72.675" height="38.4955752"></rect>
                    <path d="M188.1,217.345673 C193.861594,233.813865 201.160302,242.047961 209.996122,242.047961 C224.134538,242.047961 232.017645,195.044248 249.20581,195.044248 C265.672912,195.044248 272.344684,255.358328 287.662448,255.358328 C302.463603,255.358328 306.794943,217.345673 325.755,217.345673" id="Line-2" stroke="#858585" stroke-width="3" stroke-linecap="square"></path>
                </g>
                <g id="tr" opacity="0.250167411" transform="translate(552.500000, 415.000000) scale(-1, 1) translate(-552.500000, -415.000000) translate(362.000000, 318.000000)">
                    <rect id="Rectangle-2" stroke="#4A535E" stroke-width="5" fill="#95A3B4" x="2.5" y="2.5" width="376" height="189" rx="8"></rect>
                    <path d="M2.14044944,20.0837004 L378.859551,20.0837004" id="header" stroke="#4A535E" stroke-width="5" stroke-linecap="square"></path>
                    <g id="Group-2" transform="translate(26.541573, 38.458150)" stroke="#6F7883" stroke-linecap="square" stroke-width="5">
                        <path d="M0.428089888,32.0484581 L327.488764,32.0484581" id="Line"></path>
                        <path d="M103.169663,1.28193833 L225.603371,1.28193833" id="Line"></path>
                        <path d="M103.169663,13.246696 L327.488764,13.246696" id="Line"></path>
                        <path d="M0.428089888,44.8678414 L327.488764,44.8678414" id="Line"></path>
                        <path d="M0.428089888,57.6872247 L327.488764,57.6872247" id="Line"></path>
                        <path d="M0.428089888,121.784141 L327.488764,121.784141" id="Line"></path>
                        <path d="M0.428089888,134.603524 L327.488764,134.603524" id="Line"></path>
                        <path d="M0.428089888,70.5066079 L156.252809,70.5066079" id="Line"></path>
                        <path d="M0.428089888,70.5066079 L156.252809,70.5066079" id="Line"></path>
                        <path d="M0.428089888,83.3259912 L156.252809,83.3259912" id="Line"></path>
                        <path d="M0.428089888,96.1453744 L156.252809,96.1453744" id="Line"></path>
                        <path d="M0.428089888,108.964758 L156.252809,108.964758" id="Line"></path>
                    </g>
                    <rect id="Rectangle-4" fill="#848F9C" x="196.065169" y="108.537445" width="158.393258" height="38.4581498"></rect>
                    <ellipse id="Oval-5" fill="#848F9C" cx="38.9561798" cy="45.722467" rx="11.558427" ry="11.5374449"></ellipse>
                    <ellipse id="Oval-5" fill="#848F9C" cx="71.4910112" cy="45.722467" rx="11.558427" ry="11.5374449"></ellipse>
                    <ellipse id="Oval-5" fill="#848F9C" cx="104.025843" cy="45.722467" rx="11.558427" ry="11.5374449"></ellipse>
                </g>
                <g id="tr" opacity="0.250167411" transform="translate(542.000000, 0.000000)">
                    <rect id="Rectangle-2" stroke="#4A535E" stroke-width="5" fill="#95A3B4" x="2.5" y="2.5" width="376" height="189" rx="8"></rect>
                    <path d="M2.14044944,20.0837004 L378.859551,20.0837004" id="header" stroke="#4A535E" stroke-width="5" stroke-linecap="square"></path>
                    <g id="Group-2" transform="translate(26.541573, 38.458150)" stroke="#6F7883" stroke-linecap="square" stroke-width="5">
                        <path d="M0.428089888,32.0484581 L327.488764,32.0484581" id="Line"></path>
                        <path d="M103.169663,1.28193833 L225.603371,1.28193833" id="Line"></path>
                        <path d="M103.169663,13.246696 L327.488764,13.246696" id="Line"></path>
                        <path d="M0.428089888,44.8678414 L327.488764,44.8678414" id="Line"></path>
                        <path d="M0.428089888,57.6872247 L327.488764,57.6872247" id="Line"></path>
                        <path d="M0.428089888,121.784141 L327.488764,121.784141" id="Line"></path>
                        <path d="M0.428089888,134.603524 L327.488764,134.603524" id="Line"></path>
                        <path d="M0.428089888,70.5066079 L156.252809,70.5066079" id="Line"></path>
                        <path d="M0.428089888,70.5066079 L156.252809,70.5066079" id="Line"></path>
                        <path d="M0.428089888,83.3259912 L156.252809,83.3259912" id="Line"></path>
                        <path d="M0.428089888,96.1453744 L156.252809,96.1453744" id="Line"></path>
                        <path d="M0.428089888,108.964758 L156.252809,108.964758" id="Line"></path>
                    </g>
                    <rect id="Rectangle-4" fill="#848F9C" x="196.065169" y="108.537445" width="158.393258" height="38.4581498"></rect>
                    <ellipse id="Oval-5" fill="#848F9C" cx="38.9561798" cy="45.722467" rx="11.558427" ry="11.5374449"></ellipse>
                    <ellipse id="Oval-5" fill="#848F9C" cx="71.4910112" cy="45.722467" rx="11.558427" ry="11.5374449"></ellipse>
                    <ellipse id="Oval-5" fill="#848F9C" cx="104.025843" cy="45.722467" rx="11.558427" ry="11.5374449"></ellipse>
                </g>
                <g id="search-symb" filter="url(#filter-2)" transform="translate(721.000000, 180.000000)">
                    <ellipse id="Oval-4" stroke="#979797" fill-opacity="0.2" fill="#29B6F6" cx="112.51083" cy="112.539535" rx="95.398917" ry="95.4232558"></ellipse>
                    <g id="Oval-3">
                        <use fill="black" fill-opacity="1" filter="url(#filter-4)" xlink:href="#path-3"></use>
                        <path stroke="#99DFFF" stroke-width="8" d="M175.020645,208.53246 L239.945985,349.893012 C241.999782,354.3647 240.081451,359.65686 235.639345,361.773878 L217.031331,370.642083 C216.926419,370.69153 216.926419,370.69153 216.820672,370.739168 C212.280007,372.76126 206.959842,370.719553 204.93775,366.178888 L141.387954,223.476029 C131.806155,226.000797 121.877393,227.29328 111.77896,227.29328 C47.8370658,227.29328 -4,175.517577 -4,111.64664 C-4,47.775703 47.8370658,-4 111.77896,-4 C175.720853,-4 227.557919,47.775703 227.557919,111.64664 C227.557919,151.233343 207.479371,187.363843 175.020651,208.532456 Z M112.337854,195.847485 C158.59082,195.847485 196.084338,158.398351 196.084338,112.204873 C196.084338,66.0113951 158.59082,28.5622608 112.337854,28.5622608 C66.0848889,28.5622608 28.5913711,66.0113951 28.5913711,112.204873 C28.5913711,158.398351 66.0848889,195.847485 112.337854,195.847485 Z" fill="#0277BD" fill-rule="evenodd"></path>
                    </g>
                </g>
            </g>
            <g id="search-text" transform="translate(178.000000, 88.000000)">
                <g id="?" transform="translate(762.966317, 227.932273) rotate(-24.000000) translate(-762.966317, -227.932273) " fill="#0277BD" fill-opacity="1">
                    <use filter="url(#filter-6)" xlink:href="#text-5"></use>
                    <use xlink:href="#text-5"></use>
                </g>
                <text id="!404!" opacity="0.620982143" font-family="AvenirNext-DemiBold, Avenir Next" font-size="100" font-weight="500" fill="#797979">
                    <tspan x="37" y="412">!404!</tspan>
                </text>
                <text id="!404!" opacity="0.620982143" font-family="AvenirNext-DemiBold, Avenir Next" font-size="90" font-weight="500" fill="#797979">
                    <tspan x="1065.55" y="90">!404!</tspan>
                </text>
                <text id="pure-HTML" opacity="0.410323661" font-family="AvenirNext-DemiBoldItalic, Avenir Next" font-size="80" font-style="italic" font-weight="500" fill="#7D4B51">
                    <tspan x="967.38" y="396">pure HTML</tspan>
                </text>
                <text id="last-updated-in-2002" opacity="0.410323661" font-family="AvenirNext-DemiBoldItalic, Avenir Next" font-size="70" font-style="italic" font-weight="500" fill="#7D4B51">
                    <tspan x="249.9" y="71">last updated </tspan>
                    <tspan x="327.565" y="167">in 2002</tspan>
                </text>
            </g>
        </g>
    </g>
</svg>